{
  "asset": {
    "version": "2.0",
    "generator": "Sketchup glTF Exporter v1.2.6 by Centaur"
  },
  "scene": 0,
  "scenes": [
    {
      "nodes": [
        0
      ]
    }
  ],
  "samplers": [
    {
    }
  ],
  "nodes": [
    {
      "name": "root",
      "mesh": 0
    }
  ],
  "materials": [
    {
      "pbrMetallicRoughness": {
        "baseColorTexture": {
          "index": 0
        },
        "metallicFactor": 0.1,
        "roughnessFactor": 0.9
      },
      "name": "Wood_Plywood_Knots"
    },
    {
      "pbrMetallicRoughness": {
        "baseColorFactor": [
          0.1332,
          0.029,
          0.0,
          1.0
        ],
        "metallicFactor": 0.1,
        "roughnessFactor": 0.9
      },
      "name": "Color_C16"
    },
    {
      "pbrMetallicRoughness": {
        "baseColorFactor": [
          0.2176,
          0.2176,
          0.2176,
          1.0
        ],
        "metallicFactor": 0.1,
        "roughnessFactor": 0.9
      },
      "name": "default material",
      "doubleSided": true
    },
    {
      "pbrMetallicRoughness": {
        "baseColorTexture": {
          "index": 1
        },
        "roughnessFactor": 0.1
      },
      "name": "Metal_Rough"
    }
  ],
  "images": [
    {
      "bufferView": 0,
      "mimeType": "image/jpeg"
    },
    {
      "bufferView": 1,
      "mimeType": "image/jpeg"
    }
  ],
  "textures": [
    {
      "source": 0,
      "sampler": 0
    },
    {
      "source": 1,
      "sampler": 0
    }
  ],
  "meshes": [
    {
      "primitives": [
        {
          "attributes": {
            "POSITION": 2,
            "NORMAL": 3,
            "TEXCOORD_0": 4
          },
          "indices": 5,
          "mode": 4,
          "material": 0
        },
        {
          "attributes": {
            "POSITION": 0,
            "NORMAL": 1
          },
          "indices": 6,
          "mode": 4,
          "material": 1
        },
        {
          "attributes": {
            "POSITION": 0,
            "NORMAL": 1
          },
          "indices": 7,
          "mode": 4,
          "material": 2
        },
        {
          "attributes": {
            "POSITION": 2,
            "NORMAL": 3,
            "TEXCOORD_0": 4
          },
          "indices": 8,
          "mode": 4,
          "material": 3
        }
      ]
    }
  ],
  "accessors": [
    {
      "bufferView": 2,
      "componentType": 5126,
      "count": 237,
      "type": "VEC3",
      "min": [
        -0.3492499999999996,
        -1.493089377520453e-16,
        -2.4383999999999997
      ],
      "max": [
        7.35965,
        1.6764,
        1.7917072530245438e-15
      ]
    },
    {
      "bufferView": 3,
      "componentType": 5126,
      "count": 237,
      "type": "VEC3",
      "min": [
        -1.0,
        -1.0,
        -1.0
      ],
      "max": [
        1.0,
        1.0,
        1.0
      ]
    },
    {
      "bufferView": 4,
      "componentType": 5126,
      "count": 755,
      "type": "VEC3",
      "min": [
        -0.3492499999999996,
        -1.493089377520453e-16,
        -2.4383999999999997
      ],
      "max": [
        7.35965,
        2.1336,
        1.7917072530245438e-15
      ]
    },
    {
      "bufferView": 5,
      "componentType": 5126,
      "count": 755,
      "type": "VEC3",
      "min": [
        -1.0,
        -1.0,
        -1.0
      ],
      "max": [
        1.0,
        1.0,
        1.0
      ]
    },
    {
      "bufferView": 6,
      "componentType": 5126,
      "count": 755,
      "type": "VEC2",
      "min": [
        -4.390151515151516,
        -3.657352380637816
      ],
      "max": [
        33.19175927171386,
        13.000000000000004
      ]
    },
    {
      "bufferView": 8,
      "componentType": 5123,
      "count": 1254,
      "type": "SCALAR"
    },
    {
      "bufferView": 7,
      "componentType": 5121,
      "count": 231,
      "type": "SCALAR"
    },
    {
      "bufferView": 7,
      "componentType": 5121,
      "count": 360,
      "type": "SCALAR",
      "byteOffset": 231
    },
    {
      "bufferView": 8,
      "componentType": 5123,
      "count": 312,
      "type": "SCALAR",
      "byteOffset": 2508
    }
  ],
  "bufferViews": [
    {
      "buffer": 0,
      "byteLength": 21258
    },
    {
      "buffer": 0,
      "byteOffset": 21258,
      "byteLength": 2032
    },
    {
      "buffer": 0,
      "byteOffset": 23292,
      "byteLength": 2844,
      "target": 34962,
      "byteStride": 12
    },
    {
      "buffer": 0,
      "byteOffset": 26136,
      "byteLength": 2844,
      "target": 34962,
      "byteStride": 12
    },
    {
      "buffer": 0,
      "byteOffset": 28980,
      "byteLength": 9060,
      "target": 34962,
      "byteStride": 12
    },
    {
      "buffer": 0,
      "byteOffset": 38040,
      "byteLength": 9060,
      "target": 34962,
      "byteStride": 12
    },
    {
      "buffer": 0,
      "byteOffset": 47104,
      "byteLength": 6040,
      "target": 34962,
      "byteStride": 8
    },
    {
      "buffer": 0,
      "byteOffset": 53144,
      "byteLength": 591,
      "target": 34963
    },
    {
      "buffer": 0,
      "byteOffset": 53736,
      "byteLength": 3132,
      "target": 34963
    }
  ],
  "buffers": [
    {
      "uri": "data:application/octet-stream;base64,",
      "byteLength": 56868
    }
  ]
}