{
  "asset": {
    "version": "2.0",
    "generator": "Sketchup glTF Exporter v1.2.6 by Centaur"
  },
  "scene": 0,
  "scenes": [
    {
      "nodes": [
        0
      ]
    }
  ],
  "samplers": [
    {
    }
  ],
  "nodes": [
    {
      "name": "root",
      "children": [
        1
      ]
    },
    {
      "name": "utensils_glass  70%  70%  70%  70%",
      "mesh": 0
    }
  ],
  "materials": [
    {
      "pbrMetallicRoughness": {
        "baseColorFactor": [
          0.3392,
          0.3392,
          0.3392,
          0.15
        ],
        "metallicFactor": 0.1,
        "roughnessFactor": 0.9
      },
      "name": "Glass Realtime1",
      "doubleSided": true,
      "alphaMode": "BLEND"
    },
    {
      "pbrMetallicRoughness": {
        "baseColorTexture": {
          "index": 0
        },
        "metallicFactor": 0.1,
        "roughnessFactor": 0.9
      },
      "name": "utensils_wood_1",
      "doubleSided": true
    },
    {
      "pbrMetallicRoughness": {
        "baseColorFactor": [
          0.0329,
          0.0303,
          0.0303,
          1.0
        ],
        "roughnessFactor": 0.1
      },
      "name": "Metal Black1",
      "doubleSided": true
    }
  ],
  "images": [
    {
      "bufferView": 0,
      "mimeType": "image/jpeg"
    }
  ],
  "textures": [
    {
      "source": 0,
      "sampler": 0
    }
  ],
  "meshes": [
    {
      "primitives": [
        {
          "attributes": {
            "POSITION": 0,
            "NORMAL": 1
          },
          "indices": 5,
          "mode": 4,
          "material": 0
        },
        {
          "attributes": {
            "POSITION": 2,
            "NORMAL": 3,
            "TEXCOORD_0": 4
          },
          "indices": 6,
          "mode": 4,
          "material": 1
        },
        {
          "attributes": {
            "POSITION": 0,
            "NORMAL": 1
          },
          "indices": 7,
          "mode": 4,
          "material": 2
        }
      ]
    }
  ],
  "accessors": [
    {
      "bufferView": 1,
      "componentType": 5126,
      "count": 2261,
      "type": "VEC3",
      "min": [
        45.165074304843614,
        9.706227055743387,
        -0.4700586724853739
      ],
      "max": [
        45.49137663577623,
        10.543878109114814,
        -0.16752930908205332
      ]
    },
    {
      "bufferView": 2,
      "componentType": 5126,
      "count": 2261,
      "type": "VEC3",
      "min": [
        -0.9999994841414338,
        -0.9999999784046895,
        -0.9999994826334165
      ],
      "max": [
        0.9999994820508159,
        0.9999999687221108,
        0.9999994826110693
      ]
    },
    {
      "bufferView": 3,
      "componentType": 5126,
      "count": 7284,
      "type": "VEC3",
      "min": [
        45.23315030459947,
        9.718191909239938,
        -0.541805533447288
      ],
      "max": [
        45.564729910312366,
        10.41879241087263,
        -0.11922218017580333
      ]
    },
    {
      "bufferView": 4,
      "componentType": 5126,
      "count": 7284,
      "type": "VEC3",
      "min": [
        -0.9967482011819359,
        -0.9862202075255463,
        -0.9999950110556303
      ],
      "max": [
        0.999765988556766,
        0.9878428261543217,
        0.9987984679160871
      ]
    },
    {
      "bufferView": 5,
      "componentType": 5126,
      "count": 7284,
      "type": "VEC2",
      "min": [
        -329.8946446394548,
        -62.301241800379835
      ],
      "max": [
        246.06769771723816,
        59.2148347418816
      ]
    },
    {
      "bufferView": 6,
      "componentType": 5123,
      "count": 5988,
      "type": "SCALAR"
    },
    {
      "bufferView": 7,
      "componentType": 5123,
      "count": 7284,
      "type": "SCALAR"
    },
    {
      "bufferView": 6,
      "componentType": 5123,
      "count": 6456,
      "type": "SCALAR",
      "byteOffset": 11976
    }
  ],
  "bufferViews": [
    {
      "buffer": 0,
      "byteLength": 151228
    },
    {
      "buffer": 0,
      "byteOffset": 151236,
      "byteLength": 27132,
      "target": 34962,
      "byteStride": 12
    },
    {
      "buffer": 0,
      "byteOffset": 178368,
      "byteLength": 27132,
      "target": 34962,
      "byteStride": 12
    },
    {
      "buffer": 0,
      "byteOffset": 205500,
      "byteLength": 87408,
      "target": 34962,
      "byteStride": 12
    },
    {
      "buffer": 0,
      "byteOffset": 292908,
      "byteLength": 87408,
      "target": 34962,
      "byteStride": 12
    },
    {
      "buffer": 0,
      "byteOffset": 380320,
      "byteLength": 58272,
      "target": 34962,
      "byteStride": 8
    },
    {
      "buffer": 0,
      "byteOffset": 438592,
      "byteLength": 24888,
      "target": 34963
    },
    {
      "buffer": 0,
      "byteOffset": 463480,
      "byteLength": 14568,
      "target": 34963
    }
  ],
  "buffers": [
    {
      "uri": "data:application/octet-stream;base64,",
      "byteLength": 478048
    }
  ]
}