<svg xmlns="http://www.w3.org/2000/svg" xmlns:xlink="http://www.w3.org/1999/xlink" width="198" height="68" viewBox="0 0 198 68"><defs><style>.a,.b{fill:none;}.a{stroke:#74ee15;stroke-width:2px;}.c{clip-path:url(#g);}.d{fill:#7ff00e;}.e,.f{fill:#fff;}.f{font-size:19px;font-family:Poppins-Regular, Poppins;}.g,.h{stroke:none;}.h{fill:#74ee15;}.i{filter:url(#al);}.j{filter:url(#aj);}.k{filter:url(#ah);}.l{filter:url(#af);}.m{filter:url(#ad);}.n{filter:url(#ab);}.o{filter:url(#z);}.p{filter:url(#x);}.q{filter:url(#v);}.r{filter:url(#t);}.s{filter:url(#r);}.t{filter:url(#p);}.u{filter:url(#n);}.v{filter:url(#l);}.w{filter:url(#j);}.x{filter:url(#h);}.y{filter:url(#e);}.z{filter:url(#a);}</style><filter id="a" x="0" y="0" width="198" height="68" filterUnits="userSpaceOnUse"><feOffset input="SourceAlpha"/><feGaussianBlur stdDeviation="3" result="b"/><feFlood flood-color="#b0ff00" flood-opacity="0.702"/><feComposite operator="in" in2="b"/><feComposite in="SourceGraphic"/></filter><filter id="c" x="0" y="0" width="198" height="68" filterUnits="userSpaceOnUse"><feOffset input="SourceAlpha"/><feGaussianBlur stdDeviation="3" result="d"/><feFlood flood-color="#b0ff00" flood-opacity="0.702"/><feComposite operator="in" in2="d"/><feComposite in="SourceGraphic"/></filter><filter id="e" x="0" y="0" width="198" height="68" filterUnits="userSpaceOnUse"><feOffset input="SourceAlpha"/><feGaussianBlur stdDeviation="3" result="f"/><feFlood flood-color="#b0ff00" flood-opacity="0.702"/><feComposite operator="in" in2="f"/><feComposite in="SourceGraphic"/></filter><clipPath id="g"><g class="z" transform="matrix(1, 0, 0, 1, 0, 0)"><path class="a" d="M25,0H155a25,25,0,0,1,0,50H25A25,25,0,0,1,25,0Z" transform="translate(401 583)"/></g></clipPath><filter id="h" x="0" y="51" width="198" height="68" filterUnits="userSpaceOnUse"><feOffset input="SourceAlpha"/><feGaussianBlur stdDeviation="3" result="i"/><feFlood flood-color="#b0ff00" flood-opacity="0.702"/><feComposite operator="in" in2="i"/><feComposite in="SourceGraphic"/></filter><filter id="j" x="0" y="62" width="198" height="68" filterUnits="userSpaceOnUse"><feOffset input="SourceAlpha"/><feGaussianBlur stdDeviation="3" result="k"/><feFlood flood-color="#b0ff00" flood-opacity="0.702"/><feComposite operator="in" in2="k"/><feComposite in="SourceGraphic"/></filter><filter id="l" x="0" y="68" width="198" height="68" filterUnits="userSpaceOnUse"><feOffset input="SourceAlpha"/><feGaussianBlur stdDeviation="3" result="m"/><feFlood flood-color="#b0ff00" flood-opacity="0.702"/><feComposite operator="in" in2="m"/><feComposite in="SourceGraphic"/></filter><filter id="n" x="0" y="73" width="198" height="68" filterUnits="userSpaceOnUse"><feOffset input="SourceAlpha"/><feGaussianBlur stdDeviation="3" result="o"/><feFlood flood-color="#b0ff00" flood-opacity="0.702"/><feComposite operator="in" in2="o"/><feComposite in="SourceGraphic"/></filter><filter id="p" x="0" y="78" width="198" height="68" filterUnits="userSpaceOnUse"><feOffset input="SourceAlpha"/><feGaussianBlur stdDeviation="3" result="q"/><feFlood flood-color="#b0ff00" flood-opacity="0.702"/><feComposite operator="in" in2="q"/><feComposite in="SourceGraphic"/></filter><filter id="r" x="0" y="81" width="198" height="68" filterUnits="userSpaceOnUse"><feOffset input="SourceAlpha"/><feGaussianBlur stdDeviation="3" result="s"/><feFlood flood-color="#b0ff00" flood-opacity="0.702"/><feComposite operator="in" in2="s"/><feComposite in="SourceGraphic"/></filter><filter id="t" x="0" y="81" width="198" height="68" filterUnits="userSpaceOnUse"><feOffset input="SourceAlpha"/><feGaussianBlur stdDeviation="3" result="u"/><feFlood flood-color="#b0ff00" flood-opacity="0.702"/><feComposite operator="in" in2="u"/><feComposite in="SourceGraphic"/></filter><filter id="v" x="0" y="86" width="198" height="68" filterUnits="userSpaceOnUse"><feOffset input="SourceAlpha"/><feGaussianBlur stdDeviation="3" result="w"/><feFlood flood-color="#b0ff00" flood-opacity="0.702"/><feComposite operator="in" in2="w"/><feComposite in="SourceGraphic"/></filter><filter id="x" x="0" y="79" width="198" height="68" filterUnits="userSpaceOnUse"><feOffset input="SourceAlpha"/><feGaussianBlur stdDeviation="3" result="y"/><feFlood flood-color="#b0ff00" flood-opacity="0.702"/><feComposite operator="in" in2="y"/><feComposite in="SourceGraphic"/></filter><filter id="z" x="0" y="83" width="198" height="68" filterUnits="userSpaceOnUse"><feOffset input="SourceAlpha"/><feGaussianBlur stdDeviation="3" result="aa"/><feFlood flood-color="#b0ff00" flood-opacity="0.702"/><feComposite operator="in" in2="aa"/><feComposite in="SourceGraphic"/></filter><filter id="ab" x="0" y="84" width="198" height="68" filterUnits="userSpaceOnUse"><feOffset input="SourceAlpha"/><feGaussianBlur stdDeviation="3" result="ac"/><feFlood flood-color="#b0ff00" flood-opacity="0.702"/><feComposite operator="in" in2="ac"/><feComposite in="SourceGraphic"/></filter><filter id="ad" x="0" y="87" width="198" height="68" filterUnits="userSpaceOnUse"><feOffset input="SourceAlpha"/><feGaussianBlur stdDeviation="3" result="ae"/><feFlood flood-color="#b0ff00" flood-opacity="0.702"/><feComposite operator="in" in2="ae"/><feComposite in="SourceGraphic"/></filter><filter id="af" x="0" y="91" width="198" height="68" filterUnits="userSpaceOnUse"><feOffset input="SourceAlpha"/><feGaussianBlur stdDeviation="3" result="ag"/><feFlood flood-color="#b0ff00" flood-opacity="0.702"/><feComposite operator="in" in2="ag"/><feComposite in="SourceGraphic"/></filter><filter id="ah" x="0" y="89" width="198" height="68" filterUnits="userSpaceOnUse"><feOffset input="SourceAlpha"/><feGaussianBlur stdDeviation="3" result="ai"/><feFlood flood-color="#b0ff00" flood-opacity="0.702"/><feComposite operator="in" in2="ai"/><feComposite in="SourceGraphic"/></filter><filter id="aj" x="0" y="93" width="198" height="68" filterUnits="userSpaceOnUse"><feOffset input="SourceAlpha"/><feGaussianBlur stdDeviation="3" result="ak"/><feFlood flood-color="#b0ff00" flood-opacity="0.702"/><feComposite operator="in" in2="ak"/><feComposite in="SourceGraphic"/></filter><filter id="al" x="0" y="76" width="198" height="68" filterUnits="userSpaceOnUse"><feOffset input="SourceAlpha"/><feGaussianBlur stdDeviation="3" result="am"/><feFlood flood-color="#b0ff00" flood-opacity="0.702"/><feComposite operator="in" in2="am"/><feComposite in="SourceGraphic"/></filter></defs><g transform="translate(9 9)"><g class="y" transform="matrix(1, 0, 0, 1, -9, -9)"><g class="b" transform="translate(9 9)"><path class="g" d="M25,0H155a25,25,0,0,1,0,50H25A25,25,0,0,1,25,0Z"/><path class="h" d="M 25 2 C 21.89414978027344 2 18.88223266601563 2.607833862304688 16.0479736328125 3.806644439697266 C 13.30938720703125 4.964950561523438 10.84947204589844 6.623619079589844 8.736541748046875 8.736549377441406 C 6.623611450195313 10.8494758605957 4.964950561523438 13.30937957763672 3.806640625 16.04797744750977 C 2.607833862304688 18.88223838806152 2 21.89414215087891 2 25 C 2 28.10585784912109 2.607833862304688 31.11776161193848 3.806640625 33.9520263671875 C 4.964950561523438 36.69062042236328 6.623611450195313 39.1505241394043 8.736541748046875 41.26345062255859 C 10.84947204589844 43.37638092041016 13.30938720703125 45.03504943847656 16.0479736328125 46.19335556030273 C 18.88223266601563 47.39216613769531 21.89414978027344 48 25 48 L 155 48 C 158.1058654785156 48 161.1177673339844 47.39216613769531 163.9520263671875 46.19335556030273 C 166.6906127929688 45.03504943847656 169.1505279541016 43.37638092041016 171.2634582519531 41.26345062255859 C 173.3763732910156 39.1505241394043 175.0350494384766 36.69062042236328 176.193359375 33.9520263671875 C 177.3921661376953 31.11776161193848 178 28.10585784912109 178 25 C 178 21.89414215087891 177.3921661376953 18.88223838806152 176.193359375 16.04797744750977 C 175.0350494384766 13.30937957763672 173.3763732910156 10.8494758605957 171.2634582519531 8.736549377441406 C 169.1505279541016 6.623619079589844 166.6906127929688 4.964950561523438 163.9520263671875 3.806644439697266 C 161.1177673339844 2.607833862304688 158.1058654785156 2 155 2 L 25 2 M 25 0 L 155 0 C 168.8071136474609 0 180 11.1928825378418 180 25 C 180 38.80712127685547 168.8071136474609 50 155 50 L 25 50 C 11.19288635253906 50 0 38.80712127685547 0 25 C 0 11.1928825378418 11.19288635253906 0 25 0 Z"/></g></g><g class="c" transform="translate(-401 -583)"><g transform="translate(0 7)"><g class="x" transform="matrix(1, 0, 0, 1, 392, 567)"><g class="b" transform="translate(9 60)"><path class="g" d="M25,0H155a25,25,0,0,1,0,50H25A25,25,0,0,1,25,0Z"/><path class="h" d="M 25 2 C 21.89414978027344 2 18.88223266601563 2.607833862304688 16.0479736328125 3.806644439697266 C 13.30938720703125 4.964950561523438 10.84947204589844 6.623619079589844 8.736541748046875 8.736549377441406 C 6.623611450195313 10.8494758605957 4.964950561523438 13.30937957763672 3.806640625 16.04797744750977 C 2.607833862304688 18.88223838806152 2 21.89414215087891 2 25 C 2 28.10585784912109 2.607833862304688 31.11776161193848 3.806640625 33.9520263671875 C 4.964950561523438 36.69062042236328 6.623611450195313 39.1505241394043 8.736541748046875 41.26345062255859 C 10.84947204589844 43.37638092041016 13.30938720703125 45.03504943847656 16.0479736328125 46.19335556030273 C 18.88223266601563 47.39216613769531 21.89414978027344 48 25 48 L 155 48 C 158.1058654785156 48 161.1177673339844 47.39216613769531 163.9520263671875 46.19335556030273 C 166.6906127929688 45.03504943847656 169.1505279541016 43.37638092041016 171.2634582519531 41.26345062255859 C 173.3763732910156 39.1505241394043 175.0350494384766 36.69062042236328 176.193359375 33.9520263671875 C 177.3921661376953 31.11776161193848 178 28.10585784912109 178 25 C 178 21.89414215087891 177.3921661376953 18.88223838806152 176.193359375 16.04797744750977 C 175.0350494384766 13.30937957763672 173.3763732910156 10.8494758605957 171.2634582519531 8.736549377441406 C 169.1505279541016 6.623619079589844 166.6906127929688 4.964950561523438 163.9520263671875 3.806644439697266 C 161.1177673339844 2.607833862304688 158.1058654785156 2 155 2 L 25 2 M 25 0 L 155 0 C 168.8071136474609 0 180 11.1928825378418 180 25 C 180 38.80712127685547 168.8071136474609 50 155 50 L 25 50 C 11.19288635253906 50 0 38.80712127685547 0 25 C 0 11.1928825378418 11.19288635253906 0 25 0 Z"/></g></g><g class="w" transform="matrix(1, 0, 0, 1, 392, 567)"><g class="b" transform="translate(9 71)"><path class="g" d="M25,0H155a25,25,0,0,1,0,50H25A25,25,0,0,1,25,0Z"/><path class="h" d="M 25 2 C 21.89414978027344 2 18.88223266601563 2.607833862304688 16.0479736328125 3.806644439697266 C 13.30938720703125 4.964950561523438 10.84947204589844 6.623619079589844 8.736541748046875 8.736549377441406 C 6.623611450195313 10.8494758605957 4.964950561523438 13.30937957763672 3.806640625 16.04797744750977 C 2.607833862304688 18.88223838806152 2 21.89414215087891 2 25 C 2 28.10585784912109 2.607833862304688 31.11776161193848 3.806640625 33.9520263671875 C 4.964950561523438 36.69062042236328 6.623611450195313 39.1505241394043 8.736541748046875 41.26345062255859 C 10.84947204589844 43.37638092041016 13.30938720703125 45.03504943847656 16.0479736328125 46.19335556030273 C 18.88223266601563 47.39216613769531 21.89414978027344 48 25 48 L 155 48 C 158.1058654785156 48 161.1177673339844 47.39216613769531 163.9520263671875 46.19335556030273 C 166.6906127929688 45.03504943847656 169.1505279541016 43.37638092041016 171.2634582519531 41.26345062255859 C 173.3763732910156 39.1505241394043 175.0350494384766 36.69062042236328 176.193359375 33.9520263671875 C 177.3921661376953 31.11776161193848 178 28.10585784912109 178 25 C 178 21.89414215087891 177.3921661376953 18.88223838806152 176.193359375 16.04797744750977 C 175.0350494384766 13.30937957763672 173.3763732910156 10.8494758605957 171.2634582519531 8.736549377441406 C 169.1505279541016 6.623619079589844 166.6906127929688 4.964950561523438 163.9520263671875 3.806644439697266 C 161.1177673339844 2.607833862304688 158.1058654785156 2 155 2 L 25 2 M 25 0 L 155 0 C 168.8071136474609 0 180 11.1928825378418 180 25 C 180 38.80712127685547 168.8071136474609 50 155 50 L 25 50 C 11.19288635253906 50 0 38.80712127685547 0 25 C 0 11.1928825378418 11.19288635253906 0 25 0 Z"/></g></g><g class="v" transform="matrix(1, 0, 0, 1, 392, 567)"><g class="b" transform="translate(9 77)"><path class="g" d="M25,0H155a25,25,0,0,1,0,50H25A25,25,0,0,1,25,0Z"/><path class="h" d="M 25 2 C 21.89414978027344 2 18.88223266601563 2.607833862304688 16.0479736328125 3.806644439697266 C 13.30938720703125 4.964950561523438 10.84947204589844 6.623619079589844 8.736541748046875 8.736549377441406 C 6.623611450195313 10.8494758605957 4.964950561523438 13.30937957763672 3.806640625 16.04797744750977 C 2.607833862304688 18.88223838806152 2 21.89414215087891 2 25 C 2 28.10585784912109 2.607833862304688 31.11776161193848 3.806640625 33.9520263671875 C 4.964950561523438 36.69062042236328 6.623611450195313 39.1505241394043 8.736541748046875 41.26345062255859 C 10.84947204589844 43.37638092041016 13.30938720703125 45.03504943847656 16.0479736328125 46.19335556030273 C 18.88223266601563 47.39216613769531 21.89414978027344 48 25 48 L 155 48 C 158.1058654785156 48 161.1177673339844 47.39216613769531 163.9520263671875 46.19335556030273 C 166.6906127929688 45.03504943847656 169.1505279541016 43.37638092041016 171.2634582519531 41.26345062255859 C 173.3763732910156 39.1505241394043 175.0350494384766 36.69062042236328 176.193359375 33.9520263671875 C 177.3921661376953 31.11776161193848 178 28.10585784912109 178 25 C 178 21.89414215087891 177.3921661376953 18.88223838806152 176.193359375 16.04797744750977 C 175.0350494384766 13.30937957763672 173.3763732910156 10.8494758605957 171.2634582519531 8.736549377441406 C 169.1505279541016 6.623619079589844 166.6906127929688 4.964950561523438 163.9520263671875 3.806644439697266 C 161.1177673339844 2.607833862304688 158.1058654785156 2 155 2 L 25 2 M 25 0 L 155 0 C 168.8071136474609 0 180 11.1928825378418 180 25 C 180 38.80712127685547 168.8071136474609 50 155 50 L 25 50 C 11.19288635253906 50 0 38.80712127685547 0 25 C 0 11.1928825378418 11.19288635253906 0 25 0 Z"/></g></g><g class="u" transform="matrix(1, 0, 0, 1, 392, 567)"><g class="b" transform="translate(9 82)"><path class="g" d="M25,0H155a25,25,0,0,1,0,50H25A25,25,0,0,1,25,0Z"/><path class="h" d="M 25 2 C 21.89414978027344 2 18.88223266601563 2.607833862304688 16.0479736328125 3.806644439697266 C 13.30938720703125 4.964950561523438 10.84947204589844 6.623619079589844 8.736541748046875 8.736549377441406 C 6.623611450195313 10.8494758605957 4.964950561523438 13.30937957763672 3.806640625 16.04797744750977 C 2.607833862304688 18.88223838806152 2 21.89414215087891 2 25 C 2 28.10585784912109 2.607833862304688 31.11776161193848 3.806640625 33.9520263671875 C 4.964950561523438 36.69062042236328 6.623611450195313 39.1505241394043 8.736541748046875 41.26345062255859 C 10.84947204589844 43.37638092041016 13.30938720703125 45.03504943847656 16.0479736328125 46.19335556030273 C 18.88223266601563 47.39216613769531 21.89414978027344 48 25 48 L 155 48 C 158.1058654785156 48 161.1177673339844 47.39216613769531 163.9520263671875 46.19335556030273 C 166.6906127929688 45.03504943847656 169.1505279541016 43.37638092041016 171.2634582519531 41.26345062255859 C 173.3763732910156 39.1505241394043 175.0350494384766 36.69062042236328 176.193359375 33.9520263671875 C 177.3921661376953 31.11776161193848 178 28.10585784912109 178 25 C 178 21.89414215087891 177.3921661376953 18.88223838806152 176.193359375 16.04797744750977 C 175.0350494384766 13.30937957763672 173.3763732910156 10.8494758605957 171.2634582519531 8.736549377441406 C 169.1505279541016 6.623619079589844 166.6906127929688 4.964950561523438 163.9520263671875 3.806644439697266 C 161.1177673339844 2.607833862304688 158.1058654785156 2 155 2 L 25 2 M 25 0 L 155 0 C 168.8071136474609 0 180 11.1928825378418 180 25 C 180 38.80712127685547 168.8071136474609 50 155 50 L 25 50 C 11.19288635253906 50 0 38.80712127685547 0 25 C 0 11.1928825378418 11.19288635253906 0 25 0 Z"/></g></g><g class="t" transform="matrix(1, 0, 0, 1, 392, 567)"><g class="b" transform="translate(9 87)"><path class="g" d="M25,0H155a25,25,0,0,1,0,50H25A25,25,0,0,1,25,0Z"/><path class="h" d="M 25 2 C 21.89414978027344 2 18.88223266601563 2.607833862304688 16.0479736328125 3.806644439697266 C 13.30938720703125 4.964950561523438 10.84947204589844 6.623619079589844 8.736541748046875 8.736549377441406 C 6.623611450195313 10.8494758605957 4.964950561523438 13.30937957763672 3.806640625 16.04797744750977 C 2.607833862304688 18.88223838806152 2 21.89414215087891 2 25 C 2 28.10585784912109 2.607833862304688 31.11776161193848 3.806640625 33.9520263671875 C 4.964950561523438 36.69062042236328 6.623611450195313 39.1505241394043 8.736541748046875 41.26345062255859 C 10.84947204589844 43.37638092041016 13.30938720703125 45.03504943847656 16.0479736328125 46.19335556030273 C 18.88223266601563 47.39216613769531 21.89414978027344 48 25 48 L 155 48 C 158.1058654785156 48 161.1177673339844 47.39216613769531 163.9520263671875 46.19335556030273 C 166.6906127929688 45.03504943847656 169.1505279541016 43.37638092041016 171.2634582519531 41.26345062255859 C 173.3763732910156 39.1505241394043 175.0350494384766 36.69062042236328 176.193359375 33.9520263671875 C 177.3921661376953 31.11776161193848 178 28.10585784912109 178 25 C 178 21.89414215087891 177.3921661376953 18.88223838806152 176.193359375 16.04797744750977 C 175.0350494384766 13.30937957763672 173.3763732910156 10.8494758605957 171.2634582519531 8.736549377441406 C 169.1505279541016 6.623619079589844 166.6906127929688 4.964950561523438 163.9520263671875 3.806644439697266 C 161.1177673339844 2.607833862304688 158.1058654785156 2 155 2 L 25 2 M 25 0 L 155 0 C 168.8071136474609 0 180 11.1928825378418 180 25 C 180 38.80712127685547 168.8071136474609 50 155 50 L 25 50 C 11.19288635253906 50 0 38.80712127685547 0 25 C 0 11.1928825378418 11.19288635253906 0 25 0 Z"/></g></g><g class="s" transform="matrix(1, 0, 0, 1, 392, 567)"><g class="b" transform="translate(9 90)"><path class="g" d="M25,0H155a25,25,0,0,1,0,50H25A25,25,0,0,1,25,0Z"/><path class="h" d="M 25 2 C 21.89414978027344 2 18.88223266601563 2.607833862304688 16.0479736328125 3.806644439697266 C 13.30938720703125 4.964950561523438 10.84947204589844 6.623619079589844 8.736541748046875 8.736549377441406 C 6.623611450195313 10.8494758605957 4.964950561523438 13.30937957763672 3.806640625 16.04797744750977 C 2.607833862304688 18.88223838806152 2 21.89414215087891 2 25 C 2 28.10585784912109 2.607833862304688 31.11776161193848 3.806640625 33.9520263671875 C 4.964950561523438 36.69062042236328 6.623611450195313 39.1505241394043 8.736541748046875 41.26345062255859 C 10.84947204589844 43.37638092041016 13.30938720703125 45.03504943847656 16.0479736328125 46.19335556030273 C 18.88223266601563 47.39216613769531 21.89414978027344 48 25 48 L 155 48 C 158.1058654785156 48 161.1177673339844 47.39216613769531 163.9520263671875 46.19335556030273 C 166.6906127929688 45.03504943847656 169.1505279541016 43.37638092041016 171.2634582519531 41.26345062255859 C 173.3763732910156 39.1505241394043 175.0350494384766 36.69062042236328 176.193359375 33.9520263671875 C 177.3921661376953 31.11776161193848 178 28.10585784912109 178 25 C 178 21.89414215087891 177.3921661376953 18.88223838806152 176.193359375 16.04797744750977 C 175.0350494384766 13.30937957763672 173.3763732910156 10.8494758605957 171.2634582519531 8.736549377441406 C 169.1505279541016 6.623619079589844 166.6906127929688 4.964950561523438 163.9520263671875 3.806644439697266 C 161.1177673339844 2.607833862304688 158.1058654785156 2 155 2 L 25 2 M 25 0 L 155 0 C 168.8071136474609 0 180 11.1928825378418 180 25 C 180 38.80712127685547 168.8071136474609 50 155 50 L 25 50 C 11.19288635253906 50 0 38.80712127685547 0 25 C 0 11.1928825378418 11.19288635253906 0 25 0 Z"/></g></g><g class="r" transform="matrix(1, 0, 0, 1, 392, 567)"><g class="b" transform="translate(9 90)"><path class="g" d="M25,0H155a25,25,0,0,1,0,50H25A25,25,0,0,1,25,0Z"/><path class="h" d="M 25 2 C 21.89414978027344 2 18.88223266601563 2.607833862304688 16.0479736328125 3.806644439697266 C 13.30938720703125 4.964950561523438 10.84947204589844 6.623619079589844 8.736541748046875 8.736549377441406 C 6.623611450195313 10.8494758605957 4.964950561523438 13.30937957763672 3.806640625 16.04797744750977 C 2.607833862304688 18.88223838806152 2 21.89414215087891 2 25 C 2 28.10585784912109 2.607833862304688 31.11776161193848 3.806640625 33.9520263671875 C 4.964950561523438 36.69062042236328 6.623611450195313 39.1505241394043 8.736541748046875 41.26345062255859 C 10.84947204589844 43.37638092041016 13.30938720703125 45.03504943847656 16.0479736328125 46.19335556030273 C 18.88223266601563 47.39216613769531 21.89414978027344 48 25 48 L 155 48 C 158.1058654785156 48 161.1177673339844 47.39216613769531 163.9520263671875 46.19335556030273 C 166.6906127929688 45.03504943847656 169.1505279541016 43.37638092041016 171.2634582519531 41.26345062255859 C 173.3763732910156 39.1505241394043 175.0350494384766 36.69062042236328 176.193359375 33.9520263671875 C 177.3921661376953 31.11776161193848 178 28.10585784912109 178 25 C 178 21.89414215087891 177.3921661376953 18.88223838806152 176.193359375 16.04797744750977 C 175.0350494384766 13.30937957763672 173.3763732910156 10.8494758605957 171.2634582519531 8.736549377441406 C 169.1505279541016 6.623619079589844 166.6906127929688 4.964950561523438 163.9520263671875 3.806644439697266 C 161.1177673339844 2.607833862304688 158.1058654785156 2 155 2 L 25 2 M 25 0 L 155 0 C 168.8071136474609 0 180 11.1928825378418 180 25 C 180 38.80712127685547 168.8071136474609 50 155 50 L 25 50 C 11.19288635253906 50 0 38.80712127685547 0 25 C 0 11.1928825378418 11.19288635253906 0 25 0 Z"/></g></g><g class="q" transform="matrix(1, 0, 0, 1, 392, 567)"><g class="b" transform="translate(9 95)"><path class="g" d="M25,0H155a25,25,0,0,1,0,50H25A25,25,0,0,1,25,0Z"/><path class="h" d="M 25 2 C 21.89414978027344 2 18.88223266601563 2.607833862304688 16.0479736328125 3.806644439697266 C 13.30938720703125 4.964950561523438 10.84947204589844 6.623619079589844 8.736541748046875 8.736549377441406 C 6.623611450195313 10.8494758605957 4.964950561523438 13.30937957763672 3.806640625 16.04797744750977 C 2.607833862304688 18.88223838806152 2 21.89414215087891 2 25 C 2 28.10585784912109 2.607833862304688 31.11776161193848 3.806640625 33.9520263671875 C 4.964950561523438 36.69062042236328 6.623611450195313 39.1505241394043 8.736541748046875 41.26345062255859 C 10.84947204589844 43.37638092041016 13.30938720703125 45.03504943847656 16.0479736328125 46.19335556030273 C 18.88223266601563 47.39216613769531 21.89414978027344 48 25 48 L 155 48 C 158.1058654785156 48 161.1177673339844 47.39216613769531 163.9520263671875 46.19335556030273 C 166.6906127929688 45.03504943847656 169.1505279541016 43.37638092041016 171.2634582519531 41.26345062255859 C 173.3763732910156 39.1505241394043 175.0350494384766 36.69062042236328 176.193359375 33.9520263671875 C 177.3921661376953 31.11776161193848 178 28.10585784912109 178 25 C 178 21.89414215087891 177.3921661376953 18.88223838806152 176.193359375 16.04797744750977 C 175.0350494384766 13.30937957763672 173.3763732910156 10.8494758605957 171.2634582519531 8.736549377441406 C 169.1505279541016 6.623619079589844 166.6906127929688 4.964950561523438 163.9520263671875 3.806644439697266 C 161.1177673339844 2.607833862304688 158.1058654785156 2 155 2 L 25 2 M 25 0 L 155 0 C 168.8071136474609 0 180 11.1928825378418 180 25 C 180 38.80712127685547 168.8071136474609 50 155 50 L 25 50 C 11.19288635253906 50 0 38.80712127685547 0 25 C 0 11.1928825378418 11.19288635253906 0 25 0 Z"/></g></g><g class="p" transform="matrix(1, 0, 0, 1, 392, 567)"><g class="b" transform="translate(9 88)"><path class="g" d="M25,0H155a25,25,0,0,1,0,50H25A25,25,0,0,1,25,0Z"/><path class="h" d="M 25 2 C 21.89414978027344 2 18.88223266601563 2.607833862304688 16.0479736328125 3.806644439697266 C 13.30938720703125 4.964950561523438 10.84947204589844 6.623619079589844 8.736541748046875 8.736549377441406 C 6.623611450195313 10.8494758605957 4.964950561523438 13.30937957763672 3.806640625 16.04797744750977 C 2.607833862304688 18.88223838806152 2 21.89414215087891 2 25 C 2 28.10585784912109 2.607833862304688 31.11776161193848 3.806640625 33.9520263671875 C 4.964950561523438 36.69062042236328 6.623611450195313 39.1505241394043 8.736541748046875 41.26345062255859 C 10.84947204589844 43.37638092041016 13.30938720703125 45.03504943847656 16.0479736328125 46.19335556030273 C 18.88223266601563 47.39216613769531 21.89414978027344 48 25 48 L 155 48 C 158.1058654785156 48 161.1177673339844 47.39216613769531 163.9520263671875 46.19335556030273 C 166.6906127929688 45.03504943847656 169.1505279541016 43.37638092041016 171.2634582519531 41.26345062255859 C 173.3763732910156 39.1505241394043 175.0350494384766 36.69062042236328 176.193359375 33.9520263671875 C 177.3921661376953 31.11776161193848 178 28.10585784912109 178 25 C 178 21.89414215087891 177.3921661376953 18.88223838806152 176.193359375 16.04797744750977 C 175.0350494384766 13.30937957763672 173.3763732910156 10.8494758605957 171.2634582519531 8.736549377441406 C 169.1505279541016 6.623619079589844 166.6906127929688 4.964950561523438 163.9520263671875 3.806644439697266 C 161.1177673339844 2.607833862304688 158.1058654785156 2 155 2 L 25 2 M 25 0 L 155 0 C 168.8071136474609 0 180 11.1928825378418 180 25 C 180 38.80712127685547 168.8071136474609 50 155 50 L 25 50 C 11.19288635253906 50 0 38.80712127685547 0 25 C 0 11.1928825378418 11.19288635253906 0 25 0 Z"/></g></g><g class="o" transform="matrix(1, 0, 0, 1, 392, 567)"><g class="b" transform="translate(9 92)"><path class="g" d="M25,0H155a25,25,0,0,1,0,50H25A25,25,0,0,1,25,0Z"/><path class="h" d="M 25 2 C 21.89414978027344 2 18.88223266601563 2.607833862304688 16.0479736328125 3.806644439697266 C 13.30938720703125 4.964950561523438 10.84947204589844 6.623619079589844 8.736541748046875 8.736549377441406 C 6.623611450195313 10.8494758605957 4.964950561523438 13.30937957763672 3.806640625 16.04797744750977 C 2.607833862304688 18.88223838806152 2 21.89414215087891 2 25 C 2 28.10585784912109 2.607833862304688 31.11776161193848 3.806640625 33.9520263671875 C 4.964950561523438 36.69062042236328 6.623611450195313 39.1505241394043 8.736541748046875 41.26345062255859 C 10.84947204589844 43.37638092041016 13.30938720703125 45.03504943847656 16.0479736328125 46.19335556030273 C 18.88223266601563 47.39216613769531 21.89414978027344 48 25 48 L 155 48 C 158.1058654785156 48 161.1177673339844 47.39216613769531 163.9520263671875 46.19335556030273 C 166.6906127929688 45.03504943847656 169.1505279541016 43.37638092041016 171.2634582519531 41.26345062255859 C 173.3763732910156 39.1505241394043 175.0350494384766 36.69062042236328 176.193359375 33.9520263671875 C 177.3921661376953 31.11776161193848 178 28.10585784912109 178 25 C 178 21.89414215087891 177.3921661376953 18.88223838806152 176.193359375 16.04797744750977 C 175.0350494384766 13.30937957763672 173.3763732910156 10.8494758605957 171.2634582519531 8.736549377441406 C 169.1505279541016 6.623619079589844 166.6906127929688 4.964950561523438 163.9520263671875 3.806644439697266 C 161.1177673339844 2.607833862304688 158.1058654785156 2 155 2 L 25 2 M 25 0 L 155 0 C 168.8071136474609 0 180 11.1928825378418 180 25 C 180 38.80712127685547 168.8071136474609 50 155 50 L 25 50 C 11.19288635253906 50 0 38.80712127685547 0 25 C 0 11.1928825378418 11.19288635253906 0 25 0 Z"/></g></g><g class="n" transform="matrix(1, 0, 0, 1, 392, 567)"><g class="b" transform="translate(9 93)"><path class="g" d="M25,0H155a25,25,0,0,1,0,50H25A25,25,0,0,1,25,0Z"/><path class="h" d="M 25 2 C 21.89414978027344 2 18.88223266601563 2.607833862304688 16.0479736328125 3.806644439697266 C 13.30938720703125 4.964950561523438 10.84947204589844 6.623619079589844 8.736541748046875 8.736549377441406 C 6.623611450195313 10.8494758605957 4.964950561523438 13.30937957763672 3.806640625 16.04797744750977 C 2.607833862304688 18.88223838806152 2 21.89414215087891 2 25 C 2 28.10585784912109 2.607833862304688 31.11776161193848 3.806640625 33.9520263671875 C 4.964950561523438 36.69062042236328 6.623611450195313 39.1505241394043 8.736541748046875 41.26345062255859 C 10.84947204589844 43.37638092041016 13.30938720703125 45.03504943847656 16.0479736328125 46.19335556030273 C 18.88223266601563 47.39216613769531 21.89414978027344 48 25 48 L 155 48 C 158.1058654785156 48 161.1177673339844 47.39216613769531 163.9520263671875 46.19335556030273 C 166.6906127929688 45.03504943847656 169.1505279541016 43.37638092041016 171.2634582519531 41.26345062255859 C 173.3763732910156 39.1505241394043 175.0350494384766 36.69062042236328 176.193359375 33.9520263671875 C 177.3921661376953 31.11776161193848 178 28.10585784912109 178 25 C 178 21.89414215087891 177.3921661376953 18.88223838806152 176.193359375 16.04797744750977 C 175.0350494384766 13.30937957763672 173.3763732910156 10.8494758605957 171.2634582519531 8.736549377441406 C 169.1505279541016 6.623619079589844 166.6906127929688 4.964950561523438 163.9520263671875 3.806644439697266 C 161.1177673339844 2.607833862304688 158.1058654785156 2 155 2 L 25 2 M 25 0 L 155 0 C 168.8071136474609 0 180 11.1928825378418 180 25 C 180 38.80712127685547 168.8071136474609 50 155 50 L 25 50 C 11.19288635253906 50 0 38.80712127685547 0 25 C 0 11.1928825378418 11.19288635253906 0 25 0 Z"/></g></g><g class="m" transform="matrix(1, 0, 0, 1, 392, 567)"><g class="b" transform="translate(9 96)"><path class="g" d="M25,0H155a25,25,0,0,1,0,50H25A25,25,0,0,1,25,0Z"/><path class="h" d="M 25 2 C 21.89414978027344 2 18.88223266601563 2.607833862304688 16.0479736328125 3.806644439697266 C 13.30938720703125 4.964950561523438 10.84947204589844 6.623619079589844 8.736541748046875 8.736549377441406 C 6.623611450195313 10.8494758605957 4.964950561523438 13.30937957763672 3.806640625 16.04797744750977 C 2.607833862304688 18.88223838806152 2 21.89414215087891 2 25 C 2 28.10585784912109 2.607833862304688 31.11776161193848 3.806640625 33.9520263671875 C 4.964950561523438 36.69062042236328 6.623611450195313 39.1505241394043 8.736541748046875 41.26345062255859 C 10.84947204589844 43.37638092041016 13.30938720703125 45.03504943847656 16.0479736328125 46.19335556030273 C 18.88223266601563 47.39216613769531 21.89414978027344 48 25 48 L 155 48 C 158.1058654785156 48 161.1177673339844 47.39216613769531 163.9520263671875 46.19335556030273 C 166.6906127929688 45.03504943847656 169.1505279541016 43.37638092041016 171.2634582519531 41.26345062255859 C 173.3763732910156 39.1505241394043 175.0350494384766 36.69062042236328 176.193359375 33.9520263671875 C 177.3921661376953 31.11776161193848 178 28.10585784912109 178 25 C 178 21.89414215087891 177.3921661376953 18.88223838806152 176.193359375 16.04797744750977 C 175.0350494384766 13.30937957763672 173.3763732910156 10.8494758605957 171.2634582519531 8.736549377441406 C 169.1505279541016 6.623619079589844 166.6906127929688 4.964950561523438 163.9520263671875 3.806644439697266 C 161.1177673339844 2.607833862304688 158.1058654785156 2 155 2 L 25 2 M 25 0 L 155 0 C 168.8071136474609 0 180 11.1928825378418 180 25 C 180 38.80712127685547 168.8071136474609 50 155 50 L 25 50 C 11.19288635253906 50 0 38.80712127685547 0 25 C 0 11.1928825378418 11.19288635253906 0 25 0 Z"/></g></g><g class="l" transform="matrix(1, 0, 0, 1, 392, 567)"><g class="b" transform="translate(9 100)"><path class="g" d="M25,0H155a25,25,0,0,1,0,50H25A25,25,0,0,1,25,0Z"/><path class="h" d="M 25 2 C 21.89414978027344 2 18.88223266601563 2.607833862304688 16.0479736328125 3.806644439697266 C 13.30938720703125 4.964950561523438 10.84947204589844 6.623619079589844 8.736541748046875 8.736549377441406 C 6.623611450195313 10.8494758605957 4.964950561523438 13.30937957763672 3.806640625 16.04797744750977 C 2.607833862304688 18.88223838806152 2 21.89414215087891 2 25 C 2 28.10585784912109 2.607833862304688 31.11776161193848 3.806640625 33.9520263671875 C 4.964950561523438 36.69062042236328 6.623611450195313 39.1505241394043 8.736541748046875 41.26345062255859 C 10.84947204589844 43.37638092041016 13.30938720703125 45.03504943847656 16.0479736328125 46.19335556030273 C 18.88223266601563 47.39216613769531 21.89414978027344 48 25 48 L 155 48 C 158.1058654785156 48 161.1177673339844 47.39216613769531 163.9520263671875 46.19335556030273 C 166.6906127929688 45.03504943847656 169.1505279541016 43.37638092041016 171.2634582519531 41.26345062255859 C 173.3763732910156 39.1505241394043 175.0350494384766 36.69062042236328 176.193359375 33.9520263671875 C 177.3921661376953 31.11776161193848 178 28.10585784912109 178 25 C 178 21.89414215087891 177.3921661376953 18.88223838806152 176.193359375 16.04797744750977 C 175.0350494384766 13.30937957763672 173.3763732910156 10.8494758605957 171.2634582519531 8.736549377441406 C 169.1505279541016 6.623619079589844 166.6906127929688 4.964950561523438 163.9520263671875 3.806644439697266 C 161.1177673339844 2.607833862304688 158.1058654785156 2 155 2 L 25 2 M 25 0 L 155 0 C 168.8071136474609 0 180 11.1928825378418 180 25 C 180 38.80712127685547 168.8071136474609 50 155 50 L 25 50 C 11.19288635253906 50 0 38.80712127685547 0 25 C 0 11.1928825378418 11.19288635253906 0 25 0 Z"/></g></g><g class="k" transform="matrix(1, 0, 0, 1, 392, 567)"><g class="b" transform="translate(9 98)"><path class="g" d="M25,0H155a25,25,0,0,1,0,50H25A25,25,0,0,1,25,0Z"/><path class="h" d="M 25 2 C 21.89414978027344 2 18.88223266601563 2.607833862304688 16.0479736328125 3.806644439697266 C 13.30938720703125 4.964950561523438 10.84947204589844 6.623619079589844 8.736541748046875 8.736549377441406 C 6.623611450195313 10.8494758605957 4.964950561523438 13.30937957763672 3.806640625 16.04797744750977 C 2.607833862304688 18.88223838806152 2 21.89414215087891 2 25 C 2 28.10585784912109 2.607833862304688 31.11776161193848 3.806640625 33.9520263671875 C 4.964950561523438 36.69062042236328 6.623611450195313 39.1505241394043 8.736541748046875 41.26345062255859 C 10.84947204589844 43.37638092041016 13.30938720703125 45.03504943847656 16.0479736328125 46.19335556030273 C 18.88223266601563 47.39216613769531 21.89414978027344 48 25 48 L 155 48 C 158.1058654785156 48 161.1177673339844 47.39216613769531 163.9520263671875 46.19335556030273 C 166.6906127929688 45.03504943847656 169.1505279541016 43.37638092041016 171.2634582519531 41.26345062255859 C 173.3763732910156 39.1505241394043 175.0350494384766 36.69062042236328 176.193359375 33.9520263671875 C 177.3921661376953 31.11776161193848 178 28.10585784912109 178 25 C 178 21.89414215087891 177.3921661376953 18.88223838806152 176.193359375 16.04797744750977 C 175.0350494384766 13.30937957763672 173.3763732910156 10.8494758605957 171.2634582519531 8.736549377441406 C 169.1505279541016 6.623619079589844 166.6906127929688 4.964950561523438 163.9520263671875 3.806644439697266 C 161.1177673339844 2.607833862304688 158.1058654785156 2 155 2 L 25 2 M 25 0 L 155 0 C 168.8071136474609 0 180 11.1928825378418 180 25 C 180 38.80712127685547 168.8071136474609 50 155 50 L 25 50 C 11.19288635253906 50 0 38.80712127685547 0 25 C 0 11.1928825378418 11.19288635253906 0 25 0 Z"/></g></g><g class="j" transform="matrix(1, 0, 0, 1, 392, 567)"><path class="d" d="M25,0H155a25,25,0,0,1,0,50H25A25,25,0,0,1,25,0Z" transform="translate(9 102)"/></g><g class="i" transform="matrix(1, 0, 0, 1, 392, 567)"><g class="b" transform="translate(9 85)"><path class="g" d="M25,0H155a25,25,0,0,1,0,50H25A25,25,0,0,1,25,0Z"/><path class="h" d="M 25 2 C 21.89414978027344 2 18.88223266601563 2.607833862304688 16.0479736328125 3.806644439697266 C 13.30938720703125 4.964950561523438 10.84947204589844 6.623619079589844 8.736541748046875 8.736549377441406 C 6.623611450195313 10.8494758605957 4.964950561523438 13.30937957763672 3.806640625 16.04797744750977 C 2.607833862304688 18.88223838806152 2 21.89414215087891 2 25 C 2 28.10585784912109 2.607833862304688 31.11776161193848 3.806640625 33.9520263671875 C 4.964950561523438 36.69062042236328 6.623611450195313 39.1505241394043 8.736541748046875 41.26345062255859 C 10.84947204589844 43.37638092041016 13.30938720703125 45.03504943847656 16.0479736328125 46.19335556030273 C 18.88223266601563 47.39216613769531 21.89414978027344 48 25 48 L 155 48 C 158.1058654785156 48 161.1177673339844 47.39216613769531 163.9520263671875 46.19335556030273 C 166.6906127929688 45.03504943847656 169.1505279541016 43.37638092041016 171.2634582519531 41.26345062255859 C 173.3763732910156 39.1505241394043 175.0350494384766 36.69062042236328 176.193359375 33.9520263671875 C 177.3921661376953 31.11776161193848 178 28.10585784912109 178 25 C 178 21.89414215087891 177.3921661376953 18.88223838806152 176.193359375 16.04797744750977 C 175.0350494384766 13.30937957763672 173.3763732910156 10.8494758605957 171.2634582519531 8.736549377441406 C 169.1505279541016 6.623619079589844 166.6906127929688 4.964950561523438 163.9520263671875 3.806644439697266 C 161.1177673339844 2.607833862304688 158.1058654785156 2 155 2 L 25 2 M 25 0 L 155 0 C 168.8071136474609 0 180 11.1928825378418 180 25 C 180 38.80712127685547 168.8071136474609 50 155 50 L 25 50 C 11.19288635253906 50 0 38.80712127685547 0 25 C 0 11.1928825378418 11.19288635253906 0 25 0 Z"/></g></g></g></g><path class="e" d="M21.212,17.993a6.209,6.209,0,0,1,3.325-5.64A7.146,7.146,0,0,0,18.9,9.386c-2.361-.186-4.942,1.377-5.886,1.377-1,0-3.286-1.31-5.081-1.31-3.711.06-7.655,2.96-7.655,8.859a16.577,16.577,0,0,0,.958,5.4c.851,2.441,3.924,8.427,7.13,8.327,1.676-.04,2.86-1.191,5.041-1.191,2.115,0,3.212,1.191,5.081,1.191,3.232-.047,6.012-5.487,6.824-7.935A6.593,6.593,0,0,1,21.212,17.993ZM17.447,7.072a6.264,6.264,0,0,0,1.6-4.822,7.052,7.052,0,0,0-4.516,2.321,6.362,6.362,0,0,0-1.7,4.782,5.586,5.586,0,0,0,4.622-2.281Z" transform="translate(25.674 6.75)"/><text class="f" transform="translate(61 31)"><tspan x="0" y="0">App Store</tspan></text></g></svg>