<svg xmlns="http://www.w3.org/2000/svg" xmlns:xlink="http://www.w3.org/1999/xlink" width="198" height="68" viewBox="0 0 198 68"><defs><style>.a,.g{fill:none;}.a{stroke:#ff006c;stroke-width:2px;}.b{clip-path:url(#e);}.c{fill:#ff00d5;}.d,.i{fill:#ff006c;}.e,.f{fill:#fff;}.e{font-size:19px;font-family:Poppins-Medium, Poppins;font-weight:500;}.h,.i{stroke:none;}.j{filter:url(#f);}.k{filter:url(#a);}</style><filter id="a" x="0" y="0" width="198" height="68" filterUnits="userSpaceOnUse"><feOffset input="SourceAlpha"/><feGaussianBlur stdDeviation="3" result="b"/><feFlood flood-color="#ff006c"/><feComposite operator="in" in2="b"/><feComposite in="SourceGraphic"/></filter><filter id="c" x="0" y="0" width="198" height="68" filterUnits="userSpaceOnUse"><feOffset input="SourceAlpha"/><feGaussianBlur stdDeviation="3" result="d"/><feFlood flood-color="#ff006c"/><feComposite operator="in" in2="d"/><feComposite in="SourceGraphic"/></filter><clipPath id="e"><g class="k" transform="matrix(1, 0, 0, 1, 0, 0)"><path class="a" d="M25,0H155a25,25,0,0,1,0,50H25A25,25,0,0,1,25,0Z" transform="translate(202 583)"/></g></clipPath><filter id="f" x="0" y="0" width="198" height="68" filterUnits="userSpaceOnUse"><feOffset input="SourceAlpha"/><feGaussianBlur stdDeviation="3" result="g"/><feFlood flood-color="#ff006c"/><feComposite operator="in" in2="g"/><feComposite in="SourceGraphic"/></filter></defs><g transform="translate(9 9)"><g class="b" transform="translate(-202 -583)"><path class="c" d="M3246.317,649.48s10.309-22.789,24.959-23.874,15.192,11.394,35.268,10.852a96.261,96.261,0,0,0,41.78-10.852c7.6-3.8,24.959-16.278,45.578-15.193s20.076,13.022,35.811,19.533,25.5,19.533,25.5,19.533Z" transform="translate(-3059 23)"/><path class="d" d="M3246.317,649.48s10.309-22.789,24.959-23.874,15.192,11.394,35.268,10.852a96.261,96.261,0,0,0,41.78-10.852c7.6-3.8,24.959-16.278,45.578-15.193s20.076,13.022,35.811,19.533,25.5,19.533,25.5,19.533Z" transform="translate(-3059 40)"/></g><text class="e" transform="translate(51 31)"><tspan x="0" y="0">Google Play</tspan></text><path class="f" d="M18.642,13.17,6.236.731,22.02,9.792ZM3,0a2.185,2.185,0,0,0-1.22,1.984V26.789A2.185,2.185,0,0,0,3,28.774l14.423-14.39ZM26.9,12.681l-3.311-1.917L19.9,14.39l3.693,3.626L26.966,16.1a2.255,2.255,0,0,0-.067-3.418ZM6.236,28.049,22.02,18.988l-3.378-3.378Z" transform="translate(17.234 11.012)"/><g class="j" transform="matrix(1, 0, 0, 1, -9, -9)"><g class="g" transform="translate(9 9)"><path class="h" d="M25,0H155a25,25,0,0,1,0,50H25A25,25,0,0,1,25,0Z"/><path class="i" d="M 25 2 C 21.89414978027344 2 18.88223266601563 2.607833862304688 16.0479736328125 3.806644439697266 C 13.30938720703125 4.964950561523438 10.84947204589844 6.623619079589844 8.736541748046875 8.736549377441406 C 6.623611450195313 10.8494758605957 4.964950561523438 13.30937957763672 3.806640625 16.04797744750977 C 2.607833862304688 18.88223838806152 2 21.89414215087891 2 25 C 2 28.10585784912109 2.607833862304688 31.11776161193848 3.806640625 33.9520263671875 C 4.964950561523438 36.69062042236328 6.623611450195313 39.1505241394043 8.736541748046875 41.26345062255859 C 10.84947204589844 43.37638092041016 13.30938720703125 45.03504943847656 16.0479736328125 46.19335556030273 C 18.88223266601563 47.39216613769531 21.89414978027344 48 25 48 L 155 48 C 158.1058654785156 48 161.1177673339844 47.39216613769531 163.9520263671875 46.19335556030273 C 166.6906127929688 45.03504943847656 169.1505279541016 43.37638092041016 171.2634582519531 41.26345062255859 C 173.3763732910156 39.1505241394043 175.0350494384766 36.69062042236328 176.193359375 33.9520263671875 C 177.3921661376953 31.11776161193848 178 28.10585784912109 178 25 C 178 21.89414215087891 177.3921661376953 18.88223838806152 176.193359375 16.04797744750977 C 175.0350494384766 13.30937957763672 173.3763732910156 10.8494758605957 171.2634582519531 8.736549377441406 C 169.1505279541016 6.623619079589844 166.6906127929688 4.964950561523438 163.9520263671875 3.806644439697266 C 161.1177673339844 2.607833862304688 158.1058654785156 2 155 2 L 25 2 M 25 0 L 155 0 C 168.8071136474609 0 180 11.1928825378418 180 25 C 180 38.80712127685547 168.8071136474609 50 155 50 L 25 50 C 11.19288635253906 50 0 38.80712127685547 0 25 C 0 11.1928825378418 11.19288635253906 0 25 0 Z"/></g></g></g></svg>