<svg xmlns="http://www.w3.org/2000/svg" width="371.516" height="652.444" viewBox="0 0 371.516 652.444"><defs><style>.a{stroke:#000;}.b{fill:#fff;}.c{stroke:none;}.d{fill:none;}</style></defs><g transform="translate(-1204.424 -317)"><g class="a" transform="translate(1206.339 317)"><rect class="c" width="367" height="652.444" rx="35"/><rect class="d" x="0.5" y="0.5" width="366" height="651.444" rx="34.5"/></g><path d="M2.4,0V31.587a2.4,2.4,0,0,1-2.4-2.4V2.4A2.4,2.4,0,0,1,2.4,0Z" transform="translate(1204.424 486.724)"/><path d="M0,0H.13A2.27,2.27,0,0,1,2.4,2.27V29.317a2.27,2.27,0,0,1-2.27,2.27H0a0,0,0,0,1,0,0V0A0,0,0,0,1,0,0Z" transform="translate(1573.539 447.388)"/><path d="M2.4,0V31.558a2.4,2.4,0,0,1-2.4-2.4V2.4A2.4,2.4,0,0,1,2.4,0Z" transform="translate(1204.424 524.866)"/><path d="M2.27,0H2.4a0,0,0,0,1,0,0V18.468a0,0,0,0,1,0,0H2.27A2.27,2.27,0,0,1,0,16.2V2.27A2.27,2.27,0,0,1,2.27,0Z" transform="translate(1204.424 401.536)"/><rect class="b" width="74.536" height="5.379" rx="1.99" transform="translate(1352.167 938.188)"/></g></svg>