<svg id="Layer_1" data-name="Layer 1" xmlns="http://www.w3.org/2000/svg" viewBox="0 0 3463.813 2165.281"><defs><style>.cls-1{fill:#fff;}</style></defs><title>WC Logo</title><path class="cls-1" d="M366.6734-828.4686V-717.014H412.53V-828.4686c54.3077,33.8439,103.0917,70.2152,148.1456,111.4546h93.1308C576.73-797.9833,488.7779-858.4177,389.607-918.1893c-98.8191,59.5468-187.2957,120.7681-264.07,201.1753h93.0176C263.4882-758.158,312.2808-794.5735,366.6734-828.4686Z" transform="translate(1343.4396 1479.4079)"/><path class="cls-1" d="M662.0048,368.7059h-91.973c-47.626,44.8649-99.397,83.9549-157.5018,120.1707V368.7148H366.6734V488.8766c-58.0958-36.207-109.8652-75.2987-157.4841-120.153H117.2251c79.009,85.3778,169.6794,147.9883,272.3819,209.8739C492.3167,516.703,582.9781,454.0926,662.0048,368.7059Z" transform="translate(1343.4396 1479.4079)"/><path class="cls-1" d="M1203.9031-169.8c0-449.6478-364.6483-814.2961-814.2961-814.2961S-424.6891-619.4481-424.6891-169.8c0,449.6567,364.6483,814.2961,814.2961,814.2961S1203.9031,279.8475,1203.9031-169.8ZM924.3925,354.577A1054.4924,1054.4924,0,0,0,756.4984,242.4828c67.7209-123.3719,103.8165-239.012,111.55-379.7688H1138.392C1125.9636,57.2677,1056.6042,211.4463,924.3925,354.577ZM-359.18-137.286H-88.8519C-81.1095,3.4708-45.014,119.1109,22.705,242.4828A1055.1123,1055.1123,0,0,0-145.1783,354.577C-277.3991,211.4463-346.76,57.2677-359.18-137.286ZM58.99,298.5264q10.5,14.151,21.3287,27.5242c36.5179-53.8588,69.688-107.0441,122.6912-146.9722A943.5976,943.5976,0,0,0,82.9945,215.33C18.4327,100.9076-14.9779-6.17-23.3513-137.286H70.98c-26.8861-17.6677-51.2179-39.7988-73.0891-65.0268H-23.3513q.7768-12.1332,1.84-24.0119C-41.9681-253.3663-60.032-283.0665-75.8455-314A890.6034,890.6034,0,0,0-88.8519-202.3128H-359.18c12.42-194.5555,81.7718-348.7252,214.0014-491.8542,26.6,21.6891,53.77,41.757,81.8392,60.4609,36.5355,1.5273,54.1343,26.9109,83.6012,42.3443.4931-22.4581,1.2179-44.9,1.4938-67.3587A1066.5524,1066.5524,0,0,1-96.9318-739.663c301.0974-236.9421,671.5383-244.0534,973.0759,0-38.512,30.02-77.75,57.1307-119.5414,81.436,1.5874,22.4828,2.4518,45.0806,2.8143,67.6589,30.3806-15.4246,43.8289-41.5064,83.1683-43.1645,28.0684-18.7127,55.2393-38.7629,81.8072-60.4344,132.2276,143.129,201.5711,297.2987,214,491.8542H868.0482a886.3314,886.3314,0,0,0-12.9817-111.61c-15.8117,30.9163-33.886,60.6077-54.3413,87.6493q1.0607,11.8469,1.83,23.9606H781.357c-21.8889,25.228-46.2119,47.3591-73.1068,65.0268h94.3045C794.1831-6.17,760.78,100.9076,696.22,215.33a946.4013,946.4013,0,0,0-114.8128-35.0332c50.5108,40.2213,82.0493,93.6823,116.607,146.85q11.2635-13.9176,22.2-28.62c55.7572,29.207,106.4395,62.9728,155.93,101.5445-296.049,240.3257-672.5477,243.8045-973.0759,0C-47.4569,361.4992,3.2413,327.7334,58.99,298.5264Z" transform="translate(1343.4396 1479.4079)"/><path class="cls-1" d="M-482.069-169.8c0-383.9122,248.3258-709.9283,593.0791-826.1642l34.0238-138.8229-9.8052-8.2939c-432.2558,112.697-751.41,505.7763-751.41,973.281,0,361.4559,190.8345,678.3049,477.1738,855.5532C-79.34,680.3245-19.3016,662.3279,39.89,628.7265-267.3694,493.96-482.069,187.15-482.069-169.8Z" transform="translate(1343.4396 1479.4079)"/><path class="cls-1" d="M1261.283-169.8c0,357.2612-215.0885,664.3139-522.7723,798.9066,59.3827,33.584,119.61,51.4939,179.46,56.7668C1204.4369,508.66,1395.3758,191.7493,1395.3758-169.8c0-467.5047-319.1453-860.584-751.3923-973.281l-9.8227,8.2939,34.0414,138.8229C1012.9466-879.7286,1261.283-553.7125,1261.283-169.8Z" transform="translate(1343.4396 1479.4079)"/><path class="cls-1" d="M-1105.3238-176.1533-1343.44,61.9555h659.9442A1099.2467,1099.2467,0,0,0-326.7962,664.0882,516.84,516.84,0,0,0-218.8808,685.78c-270.81-193.3818-438.9959-508.746-438.9959-852.73,0-477.6317,319.8947-880.67,757.0541-1006.6243l-45.1937-38.2277c-353.0136,113.3443-628.1388,400.6395-724.42,760.9644H-1343.44l238.1158,238.107h398.7322c-.5,12.1524-.8449,24.3407-.9669,36.5781Z" transform="translate(1343.4396 1479.4079)"/><path class="cls-1" d="M1437.0819-166.9508c0,343.8977-168.1184,659.1594-438.8068,852.5659a519.0958,519.0958,0,0,0,108.596-22.26A1099.21,1099.21,0,0,0,1462.6988,61.9555h657.6745L1882.2752-176.1533H1486.6929c-.1025-12.2374-.4666-24.4257-.9669-36.5781h396.5492l238.0981-238.107H1449.6146c-96.272-360.3249-371.3813-647.62-724.3949-760.9729l-45.1919,38.2362C1117.1765-1047.6207,1437.0819-644.5825,1437.0819-166.9508Z" transform="translate(1343.4396 1479.4079)"/><path class="cls-1" d="M-28.2707-498.8359C-2.3074-440.3774,28.2377-286.2341,161.9522-217.03c-32.9191-56.8444-59.4693-193.958-68.7653-250.8112C49.8845-469.093,9.87-478.2936-28.2707-498.8359ZM22.42-450.14a306.5288,306.5288,0,0,0,47.7126,8.1223c8.3027,44.4425,19.0925,88.6339,31.5564,132.1006C68.5881-352.1235,44.0583-401.3475,22.42-450.14Z" transform="translate(1343.4396 1479.4079)"/><path class="cls-1" d="M452.0778,159.3057V-12.1871c25.7212-13.7153,46.0386-36.2423,54.0143-64.3268,39.5478-18.4279,74.505-29.2265,103.7457-61.6188,162.7145-36,249.3191-253.1943,281.1334-398.8277a45.5808,45.5808,0,0,0-22.1293-50.6472,46.28,46.28,0,0,0-54.8257,7.025l-.2757.2686c-24.65,24.3743-59.6585,38.4519-94.5449,44.3718.6558-46.3144-.1556-94.8808-4.4545-140.85H62.0972c0,46.8747-2.7186,94.0447-1.9939,140.7815-35.1888-6.24-67.7543-20.86-95.4074-45.0116a46.1094,46.1094,0,0,0-54.368-6.5509,45.5281,45.5281,0,0,0-22.0356,50.7264C-79.8156-391.2224,6.6778-174.1593,169.3834-138.1327c29.2424,32.3852,64.1978,43.1821,103.7633,61.6188,7.958,28.111,28.3019,50.638,54.0567,64.3621V160.5307c-94.08,28.5689-147.61,90.748-199.9662,167.9787l523.6861-.0159C600.1032,250.356,547.9184,184.8024,452.0778,159.3057Zm213.07-808.9277h24.839c1.26,13.6109.6045,27.4552.6045,41.1263H665.1478Zm-41.1371,0h30.8474v41.1263H624.0107Zm-41.1351,0H613.723v41.1263H582.8756Zm-41.1369,0h30.8474v41.1263H541.7387Zm-41.1352,0h30.8474v41.1263H500.6035Zm-41.1369,0H490.314v41.1263H459.4666Zm-41.1191,0h30.8313v41.1263H418.3475Zm-41.1441,0H408.06v41.1263H377.2034Zm-41.1352,0h30.8562v41.1263H336.0682Zm-41.1281,0h30.8474v41.1263H294.94Zm-41.1369,0h30.8491v41.1263H253.8032Zm-41.1352,0h30.8474v41.1263H212.668Zm-41.1369,0h30.858v41.1263h-30.858Zm-41.1263,0h30.8385v41.1263H130.4048Zm-41.1369,0H120.117v41.1263H89.2679ZM354.3741,181.3572V-29.8814c-31.7452-10.8923-54.3166-35.9912-57.3287-65.854-42.6889-17.3054-81.2963-29.8293-113.3351-67.2294-204.8432-36.5268-268.29-377.69-268.99-380.1842a18.3474,18.3474,0,0,1,8.9337-20.74,18.9388,18.9388,0,0,1,22.6914,2.9078c40.0834,35.2329,89.4277,52.9449,142.3194,55.4125a486.0353,486.0353,0,0,1,.6028-82.3675l548.2248-.0088c5.3683,167.2981-35.3532,399.39-201.4686,466.73,2.4516,42.12-28.7244,59.0961-54.4792,71.9225V201.15c54.2386,12.6016,110.0984,38.823,140.1874,80.994h27.24C512.5476,228.8294,454.4608,200.77,397.7366,187.71V-43.9661c35.475-12.1438,54.8768-29.3113,59.0714-70.7932C622.9413-182.1,670.1183-420.6556,664.75-587.9449h25.2369a476.11,476.11,0,0,1,.6045,82.272c50.7866-2.0964,105.6794-19.1437,142.2593-55.3241a19.1135,19.1135,0,0,1,22.7339-2.8919,18.3765,18.3765,0,0,1,8.9249,20.74c-.6912,2.5384-64.1466,343.7013-269.0163,380.1842C563.49-125.5735,524.8911-113.0408,482.2-95.7354c-3.0209,29.8292-25.5992,54.9617-57.2933,65.82V181.0125c80.6335,14.9845,138.3581,62.5147,175.9385,120.3192l-422.3658.007C219.6167,240.68,281.7253,198.3179,354.3741,181.3572Z" transform="translate(1343.4396 1479.4079)"/><path class="cls-1" d="M807.5607-498.88c-38.1672,20.5261-78.164,29.7338-121.4575,30.9853-9.27,56.8549-31.0206,196.4292-68.8412,250.8129C714.932-242.8452,784.2224-413.5956,807.5607-498.88ZM709.1659-442.069a303.7642,303.7642,0,0,0,53.9612-9.7964c-20.0752,51.1472-50.5956,109.3226-88.1583,150.7176A1401.2762,1401.2762,0,0,0,709.1659-442.069Z" transform="translate(1343.4396 1479.4079)"/><path class="cls-1" d="M371.5086-1390.8953l-58.7053-88.5126c-6.8979,4.5069-13.6164,8.8388-20.2769,13.2583-27.6248,18.33-55.1519,36.8089-82.8763,54.9869-16.1854,10.6123-33.8958,13.9694-52.998,10.0234-12.738-2.6314-25.5672-4.8214-39.124-7.3524a162.61,162.61,0,0,0,21.1617,93.4258c20.77,36.7693,51.2838,62.1734,91.5729,76.6683,2.3046-10.5875,5.0552-20.6306,6.6062-30.8557,3.9561-26.0809,17.5219-44.8338,39.9033-58.815,30.7635-19.2174,60.6068-39.9082,90.8375-59.978C368.8238-1388.8523,369.9673-1389.7648,371.5086-1390.8953Z" transform="translate(1343.4396 1479.4079)"/><path class="cls-1" d="M343.0252-1362.6271l-63.6078,42.1884c2.9574,4.5769,5.7369,8.9707,8.6074,13.3042q16.5334,24.96,33.1379,49.8739a16.86,16.86,0,0,0,3.236,3.6847c28.6767,23.4821,49.8921,52.9562,67.9846,84.8838,22.6277,39.9307,39.7517,82.1908,52.807,126.1427.3258,1.0971.821,2.1438,1.4393,3.7336,31.8428-5.1964,59.22-20.1634,85.87-38.2032Z" transform="translate(1343.4396 1479.4079)"/><path class="cls-1" d="M109.8773-1409.9117l-11.146-2.2335c-17.4749,76.5682,33.5615,172.7893,127.2961,192.6585.8556-3.6017,1.7161-7.2237,2.7014-11.3712-37.4777-13.1286-67.5782-36.024-89.6342-69.0574C116.996-1333.0126,107.5134-1369.6582,109.8773-1409.9117Z" transform="translate(1343.4396 1479.4079)"/><path class="cls-1" d="M275.6724-1464.0185c-2.03-3.1179-3.8961-5.9828-6.0059-9.2228-27.9384,3.7111-48.9532,17.73-63.8052,42.0385l6.1049,9.4132Z" transform="translate(1343.4396 1479.4079)"/><path class="cls-1" d="M407.7036-1390.8953l58.7054-88.5126c6.8979,4.5069,13.6164,8.8388,20.2768,13.2583,27.6248,18.33,55.1519,36.8089,82.8763,54.9869,16.1854,10.6123,33.8959,13.9694,52.998,10.0234,12.738-2.6314,25.5672-4.8214,39.1241-7.3524a162.6112,162.6112,0,0,1-21.1617,93.4258c-20.77,36.7693-51.2839,62.1734-91.5729,76.6683-2.3047-10.5875-5.0553-20.6306-6.6063-30.8557-3.9561-26.0809-17.5218-44.8338-39.9032-58.815-30.7636-19.2174-60.6069-39.9082-90.8375-59.978C410.3884-1388.8523,409.2449-1389.7648,407.7036-1390.8953Z" transform="translate(1343.4396 1479.4079)"/><path class="cls-1" d="M436.187-1362.6271l63.6079,42.1884c-2.9575,4.5769-5.737,8.9707-8.6075,13.3042q-16.5335,24.96-33.1379,49.8739a16.86,16.86,0,0,1-3.236,3.6847c-28.6766,23.4821-49.8921,52.9562-67.9846,84.8838-22.6276,39.9307-39.7517,82.1908-52.8069,126.1427-.3259,1.0971-.8211,2.1438-1.4393,3.7336-31.8429-5.1964-59.2205-20.1634-85.87-38.2032Z" transform="translate(1343.4396 1479.4079)"/><path class="cls-1" d="M669.3349-1409.9117l11.146-2.2335c17.4749,76.5682-33.5615,172.7893-127.2961,192.6585-.8556-3.6017-1.716-7.2237-2.7013-11.3712,37.4776-13.1286,67.5781-36.024,89.6341-69.0574C662.2162-1333.0126,671.6988-1369.6582,669.3349-1409.9117Z" transform="translate(1343.4396 1479.4079)"/><path class="cls-1" d="M503.54-1464.0185l6.0059-9.2228c27.9383,3.7111,48.9531,17.73,63.8052,42.0385l-6.105,9.4132Z" transform="translate(1343.4396 1479.4079)"/></svg>