<svg id="Layer_1" data-name="Layer 1" xmlns="http://www.w3.org/2000/svg" viewBox="0 0 3468.6917 3768.1286"><defs><style>.cls-1{fill:#fff;}</style></defs><title>WC Logo Full</title><path class="cls-1" d="M-1112.8394,1964.1152v4.4424h-70.3364v-4.4424h18.9444l-30.8716-73.124h-95.0357l-27.8926,73.124h26.68v4.4424h-56.9673v-4.4424h24.6534l88.6-233.8613,101.8476,233.8613Zm-84.1445-77.5713-48.0527-113.8173-43.41,113.8173Z" transform="translate(1348.3184 1479.4079)"/><path class="cls-1" d="M-856.2715,1853.0518v115.5087h-3.4936l-27.9258-45.6953c-11.104,44.4209-51.7178,50.77-75.836,50.77-65.3632,0-125.6572-52.3623-125.6572-124.0733,0-71.7158,61.5606-124.0732,126.9278-124.0732h6.0263c23.8047,0,56.1685,6.666,75.5225,14.2812l10.4731-9.2285h3.1719v46.2022h-3.293c-12.7675-29.5264-44.0742-47.13-85.875-47.13h-6.0263c-59.0186,0-88.2105,49.8213-88.2105,119.9482,0,70.124,24.4317,119.9444,83.4551,119.9444,33.3164,0,77.4243-11.7432,79.3257-74.57V1857.49h-65.3672v-4.4384Z" transform="translate(1348.3184 1479.4079)"/><path class="cls-1" d="M-751.2178,1735.01v105.9843h82.5064v4.4434h-82.5064v118.6768h89.9414l25.2422-41.8174h3.4942v46.26H-813.73v-4.4423h31.0977V1735.01H-813.73v-4.4434H-632.54v46.2607h-3.4942l-25.2422-41.8173Z" transform="translate(1348.3184 1479.4079)"/><path class="cls-1" d="M-234.4341,1849.5625c0,71.7158-61.5556,124.0723-126.9272,124.0723s-126.9273-52.3614-126.9273-124.0723c0-71.7158,61.5562-124.0732,126.9273-124.0732C-295.9941,1725.4893-234.4341,1777.8467-234.4341,1849.5625Zm-40.0288-15.1875c-12.0737-69.0781-49.4111-113.1318-107.5522-102.9678s-78.3233,64.2647-66.2495,133.3467c12.0742,69.0742,49.4155,113.1231,107.5527,102.9639C-282.5708,1957.5576-262.3345,1903.7676-274.4629,1834.375Z" transform="translate(1348.3184 1479.4079)"/><path class="cls-1" d="M-10.561,1730.5674v46.26h-3.4937L-39.2969,1735.01h-89.9453v105.9853H-46.74v4.4424h-82.502v118.6777h27.9253v4.4424h-90.4346v-4.4424h31.0982V1735.01h-31.0982v-4.4424Z" transform="translate(1348.3184 1479.4079)"/><path class="cls-1" d="M192.4619,1735.01v105.9843h82.5064v4.4434H192.4619v118.6768h89.9414l25.2422-41.8174H311.14v46.26h-181.19v-4.4423h31.0977V1735.01H129.9492v-4.4434H311.14v46.2607h-3.4941L282.4033,1735.01Z" transform="translate(1348.3184 1479.4079)"/><path class="cls-1" d="M591.6416,1735.01v229.1054h29.8272v4.4424H530.3994v-4.4424h29.8272V1741.9893l-79.33,204.6728-92.9756-206.2578v223.71H413.31v4.4423H357.4585v-4.4423h26.02V1735.01h-26.02v-4.4434h58.0708l77.7412,172.3057,66.9561-172.3057h61.2422v4.4434Z" transform="translate(1348.3184 1479.4079)"/><path class="cls-1" d="M873.3115,1791.81c0,43.1552-40.2959,61.2422-93.6064,61.2422H725.4463V1964.11h36.1719v4.4433H664.2V1964.11h29.8271V1735.01H664.2v-4.4424H779.7051C833.0156,1730.5674,873.3115,1748.6553,873.3115,1791.81Zm-38.3906,0c0-45.6953-21.8945-56.8-61.2422-56.8H725.4463v113.6h48.2324C813.0264,1848.6094,834.9209,1837.5049,834.9209,1791.81Z" transform="translate(1348.3184 1479.4079)"/><path class="cls-1" d="M977.0938,1735.01v229.1045h29.8271v4.4423H915.8516v-4.4423h29.831V1735.01h-29.831v-4.4434h91.0693v4.4434Z" transform="translate(1348.3184 1479.4079)"/><path class="cls-1" d="M1140.25,1846.708h-29.51v117.4072h36.1709v4.4424H1049.498v-4.4424h29.8272V1735.01H1049.498v-4.4424h105.98c53.3106,0,93.61,18.0879,93.61,58.0742,0,34.583-30.4619,52.6758-72.668,57.1182l88.8506,118.3554h29.1914v4.4424h-64.4014Zm70.4443-58.0664c0-43.1543-21.8945-53.6279-61.2422-53.6279H1110.74v107.2519h38.7119C1188.8,1842.2656,1210.6943,1831.1572,1210.6943,1788.6416Z" transform="translate(1348.3184 1479.4079)"/><path class="cls-1" d="M1399.7109,1735.01v105.9843h82.5059v4.4434h-82.5059v118.6768h89.94l25.2431-41.8174h3.4932v46.26h-181.19v-4.4423h31.0976V1735.01h-31.0976v-4.4434h181.19v46.2607h-3.4932l-25.2431-41.8173Z" transform="translate(1348.3184 1479.4079)"/><path class="cls-1" d="M1738.916,1897.4814c0,41.5665-14.6025,76.7891-85.043,76.7891-29.1923,0-60.6074-13.3281-78.6953-22.8486l-7.2968,17.14h-3.1758v-46.1933h3.1719c12.7089,27.5664,45.9,45.9589,85.9951,45.9589,50.1347,0,71.7949-19.4414,71.7949-47.998,0-26.334-26.4209-37.4463-47.9981-45.374l-59.0185-21.2637c-33.6387-12.0576-56.8047-37.124-46.3311-81.8672,7.2969-31.415,47.5928-46.0127,70.44-46.0127,25.7031,0,55.5341,8.8809,73.9355,18.7188l9.52-13.9883h3.1719v46.2051h-3.2061c-12.7177-28.1348-46.7236-45.3946-83.1084-45.6289-31.0976-.3174-65.1367,20.0771-65.1367,47.3681,0,26.6543,23.57,32.6807,43.56,39.3467l66.0029,21.8916C1715.42,1848.9268,1738.9033,1863.8389,1738.916,1897.4814Z" transform="translate(1348.3184 1479.4079)"/><path class="cls-1" d="M1940.8447,1735.01v229.1045h29.8272v4.4423h-91.0694v-4.4423h29.8311V1735.01h-29.8311v-4.4434h91.0694v4.4434Z" transform="translate(1348.3184 1479.4079)"/><path class="cls-1" d="M2074.4912,1735.01v229.1045h29.8272v4.4423H2013.249v-4.4423H2043.08V1735.01H2013.249v-4.4434h91.0694v4.4434Z" transform="translate(1348.3184 1479.4079)"/><path class="cls-1" d="M-839.0723,2180.2832q0,44.893-31.6972,76.74-31.8487,31.6993-76.7408,31.6973h-50.0483a8.0382,8.0382,0,0,1-5.9145-2.4268,8.04,8.04,0,0,1-2.4268-5.915,8.0464,8.0464,0,0,1,2.4268-5.9141,8.05,8.05,0,0,1,5.9145-2.4267H-947.51q37.9131,0,64.9112-26.8438,26.844-26.9942,26.8442-64.9111,0-37.9131-26.8442-64.9111-26.9972-26.8447-64.9112-26.8448h-50.0483a8.0414,8.0414,0,0,1-5.9145-2.4257,8.0406,8.0406,0,0,1-2.4268-5.9151,8.0466,8.0466,0,0,1,2.4268-5.915,8.05,8.05,0,0,1,5.9145-2.4268H-947.51q44.891,0,76.7408,31.6973Q-839.0733,2135.3906-839.0723,2180.2832Z" transform="translate(1348.3184 1479.4079)"/><path class="cls-1" d="M-654.9253,2071.8447a8.3955,8.3955,0,0,1,5.915,2.4268,8.0559,8.0559,0,0,1,2.4268,5.915,8.05,8.05,0,0,1-2.4268,5.9151,8.3862,8.3862,0,0,1-5.915,2.4257H-792.6338a8.0416,8.0416,0,0,1-5.9145-2.4257,8.0406,8.0406,0,0,1-2.4268-5.9151,8.0466,8.0466,0,0,1,2.4268-5.915,8.05,8.05,0,0,1,5.9145-2.4268Zm0,100.0967a8.3955,8.3955,0,0,1,5.915,2.4268,8.0559,8.0559,0,0,1,2.4268,5.915,8.0477,8.0477,0,0,1-2.4268,5.9141,8.383,8.383,0,0,1-5.915,2.4267H-792.6338a8.0386,8.0386,0,0,1-5.9145-2.4267,8.0384,8.0384,0,0,1-2.4268-5.9141,8.0466,8.0466,0,0,1,2.4268-5.915,8.05,8.05,0,0,1,5.9145-2.4268Zm8.3418,108.4375a8.05,8.05,0,0,1-2.4268,5.915,8.3827,8.3827,0,0,1-5.915,2.4268H-792.6338a8.0383,8.0383,0,0,1-5.9145-2.4268,8.04,8.04,0,0,1-2.4268-5.915,8.0464,8.0464,0,0,1,2.4268-5.9141,8.05,8.05,0,0,1,5.9145-2.4267h137.7085a8.3954,8.3954,0,0,1,5.915,2.4267A8.0557,8.0557,0,0,1-646.5835,2280.3789Z" transform="translate(1348.3184 1479.4079)"/><path class="cls-1" d="M-600.145,2288.7207a8.0384,8.0384,0,0,1-5.9146-2.4268,8.0407,8.0407,0,0,1-2.4267-5.915V2080.1865a8.0469,8.0469,0,0,1,2.4267-5.915,8.05,8.05,0,0,1,5.9146-2.4268h137.7085a8.3957,8.3957,0,0,1,5.915,2.4268,8.0563,8.0563,0,0,1,2.4268,5.915,8.05,8.05,0,0,1-2.4268,5.9151,8.3864,8.3864,0,0,1-5.915,2.4257H-591.8032v83.4141h96.0014a7.8836,7.8836,0,0,1,5.7632,2.4268,7.8205,7.8205,0,0,1,2.5782,5.915,7.8127,7.8127,0,0,1-2.5782,5.9141,7.8722,7.8722,0,0,1-5.7632,2.4267h-96.0014v91.7549a8.05,8.05,0,0,1-2.4268,5.915A8.0463,8.0463,0,0,1-600.145,2288.7207Z" transform="translate(1348.3184 1479.4079)"/><path class="cls-1" d="M-407.6567,2288.7207a8.0384,8.0384,0,0,1-5.9146-2.4268,8.0407,8.0407,0,0,1-2.4267-5.915V2080.1865a8.0469,8.0469,0,0,1,2.4267-5.915,8.05,8.05,0,0,1,5.9146-2.4268,8.0581,8.0581,0,0,1,5.915,2.4268,8.0563,8.0563,0,0,1,2.4268,5.915v200.1924a8.05,8.05,0,0,1-2.4268,5.915A8.0465,8.0465,0,0,1-407.6567,2288.7207Z" transform="translate(1348.3184 1479.4079)"/><path class="cls-1" d="M-352.8765,2288.7207a8.0383,8.0383,0,0,1-5.9145-2.4268,8.04,8.04,0,0,1-2.4268-5.915V2080.1865q0-6.0643,5.6118-7.8867,5.7621-1.9687,9.4029,2.7305l139.3769,180.9316V2080.1865a8.0462,8.0462,0,0,1,2.4263-5.915,8.05,8.05,0,0,1,5.915-2.4268,8.3946,8.3946,0,0,1,5.9146,2.4268,8.0562,8.0562,0,0,1,2.4267,5.915v200.1924q0,5.9151-5.7631,7.8867a7.2814,7.2814,0,0,1-2.5782.4551,8.19,8.19,0,0,1-6.6733-3.1846l-139.3765-180.9326v175.7754a8.05,8.05,0,0,1-2.4267,5.915A8.0467,8.0467,0,0,1-352.8765,2288.7207Z" transform="translate(1348.3184 1479.4079)"/><path class="cls-1" d="M-143.7051,2288.7207a8.0383,8.0383,0,0,1-5.9145-2.4268,8.04,8.04,0,0,1-2.4268-5.915V2080.1865a8.0466,8.0466,0,0,1,2.4268-5.915,8.05,8.05,0,0,1,5.9145-2.4268,8.0583,8.0583,0,0,1,5.9151,2.4268,8.0562,8.0562,0,0,1,2.4267,5.915v200.1924a8.05,8.05,0,0,1-2.4267,5.915A8.0467,8.0467,0,0,1-143.7051,2288.7207Z" transform="translate(1348.3184 1479.4079)"/><path class="cls-1" d="M-88.9253,2088.5273a8.0414,8.0414,0,0,1-5.9145-2.4257,8.0406,8.0406,0,0,1-2.4268-5.9151,8.0466,8.0466,0,0,1,2.4268-5.915,8.05,8.05,0,0,1,5.9145-2.4268H65.4663a8.3948,8.3948,0,0,1,5.9146,2.4268,8.4223,8.4223,0,0,1,0,11.83,8.3855,8.3855,0,0,1-5.9146,2.4257H-3.3882v191.8516a8.0512,8.0512,0,0,1-2.4263,5.915,8.0463,8.0463,0,0,1-5.915,2.4268,8.0367,8.0367,0,0,1-5.9145-2.4268,8.04,8.04,0,0,1-2.4268-5.915V2088.5273Z" transform="translate(1348.3184 1479.4079)"/><path class="cls-1" d="M113.27,2083.5225a8.1876,8.1876,0,0,1-.1518-6.3692,8.36,8.36,0,0,1,4.3984-4.7021,7.7782,7.7782,0,0,1,6.37,0,8.3668,8.3668,0,0,1,4.7017,4.3984l79.9253,182.752,79.9253-182.752a8.4693,8.4693,0,0,1,10.92-4.3984,8.99,8.99,0,0,1,4.55,4.7021,8.1982,8.1982,0,0,1-.1519,6.3692l-87.66,200.1933a7.615,7.615,0,0,1-7.583,5.0049,7.8952,7.8952,0,0,1-7.7349-5.0049Z" transform="translate(1348.3184 1479.4079)"/><path class="cls-1" d="M489.2686,2071.8447a8.3965,8.3965,0,0,1,5.915,2.4268,8.422,8.422,0,0,1,0,11.83,8.3873,8.3873,0,0,1-5.915,2.4257H351.56a8.3414,8.3414,0,1,1,0-16.6826Zm0,100.0967a8.3965,8.3965,0,0,1,5.915,2.4268,8.4208,8.4208,0,0,1,0,11.8291,8.3841,8.3841,0,0,1-5.915,2.4267H351.56a8.3414,8.3414,0,1,1,0-16.6826Zm8.3418,108.4375a8.05,8.05,0,0,1-2.4268,5.915,8.3837,8.3837,0,0,1-5.915,2.4268H351.56a8.3414,8.3414,0,1,1,0-16.6826H489.2686a8.3964,8.3964,0,0,1,5.915,2.4267A8.056,8.056,0,0,1,497.61,2280.3789Z" transform="translate(1348.3184 1479.4079)"/><path class="cls-1" d="M766.5664,2071.8447a8.3964,8.3964,0,0,1,5.915,2.4268,8.422,8.422,0,0,1,0,11.83,8.3871,8.3871,0,0,1-5.915,2.4257H628.8584a8.3414,8.3414,0,1,1,0-16.6826Zm0,100.0967a8.3964,8.3964,0,0,1,5.915,2.4268,8.4208,8.4208,0,0,1,0,11.8291,8.3839,8.3839,0,0,1-5.915,2.4267H628.8584a8.3414,8.3414,0,1,1,0-16.6826Zm8.3418,108.4375a8.05,8.05,0,0,1-2.4268,5.915,8.3836,8.3836,0,0,1-5.915,2.4268H628.8584a8.3414,8.3414,0,1,1,0-16.6826h137.708a8.3963,8.3963,0,0,1,5.915,2.4267A8.0557,8.0557,0,0,1,774.9082,2280.3789Z" transform="translate(1348.3184 1479.4079)"/><path class="cls-1" d="M979.832,2180.2832q0,44.893-31.6963,76.74-31.85,31.6993-76.7412,31.6973H821.3467a8.3414,8.3414,0,1,1,0-16.6826h50.0478q37.9131,0,64.9112-26.8438,26.8446-26.9942,26.8437-64.9111,0-37.9131-26.8437-64.9111-26.9972-26.8447-64.9112-26.8448H821.3467a8.3414,8.3414,0,1,1,0-16.6826h50.0478q44.89,0,76.7412,31.6973Q979.8305,2135.3906,979.832,2180.2832Z" transform="translate(1348.3184 1479.4079)"/><path class="cls-1" d="M1026.2715,2288.7207a8.2861,8.2861,0,0,1-8.3418-8.3418V2080.1865a8.3414,8.3414,0,1,1,16.6826,0v200.1924a8.2862,8.2862,0,0,1-8.3408,8.3418Z" transform="translate(1348.3184 1479.4079)"/><path class="cls-1" d="M1081.0518,2088.5273a8.3414,8.3414,0,1,1,0-16.6826h154.3906a8.3965,8.3965,0,0,1,5.915,2.4268,8.422,8.422,0,0,1,0,11.83,8.3873,8.3873,0,0,1-5.915,2.4257h-68.8535v191.8516a8.3419,8.3419,0,1,1-16.6836,0V2088.5273Z" transform="translate(1348.3184 1479.4079)"/><path class="cls-1" d="M1290.2227,2288.7207a8.2861,8.2861,0,0,1-8.3418-8.3418V2080.1865a8.3414,8.3414,0,1,1,16.6826,0v200.1924a8.2862,8.2862,0,0,1-8.3408,8.3418Z" transform="translate(1348.3184 1479.4079)"/><path class="cls-1" d="M1445.0986,2071.8447q44.8917,0,76.7412,31.6973,31.6964,31.8486,31.6973,76.7412t-31.6973,76.74q-31.8486,31.6993-76.7412,31.6973-44.893,0-76.74-31.6973-31.6992-31.8486-31.6973-76.74,0-44.8915,31.6973-76.7412Q1400.207,2071.8456,1445.0986,2071.8447Zm0,200.1934q37.9131,0,64.9112-26.8438,26.8447-26.9942,26.8447-64.9111,0-37.9131-26.8447-64.9111-26.9957-26.8447-64.9112-26.8448t-64.91,26.8448q-26.8447,26.997-26.8447,64.9111,0,37.916,26.8447,64.9111Q1407.1812,2272.0376,1445.0986,2272.0381Z" transform="translate(1348.3184 1479.4079)"/><path class="cls-1" d="M1599.9756,2288.7207a8.2861,8.2861,0,0,1-8.3418-8.3418V2080.1865q0-6.0643,5.6113-7.8867,5.7627-1.9687,9.4033,2.7305l139.377,180.9316V2080.1865a8.2861,8.2861,0,0,1,8.3408-8.3418,8.3968,8.3968,0,0,1,5.9151,2.4268,8.0562,8.0562,0,0,1,2.4267,5.915v200.1924q0,5.9151-5.7637,7.8867a7.2745,7.2745,0,0,1-2.5781.4551,8.1891,8.1891,0,0,1-6.6728-3.1846l-139.377-180.9326v175.7754a8.2862,8.2862,0,0,1-8.3408,8.3418Z" transform="translate(1348.3184 1479.4079)"/><path class="cls-1" d="M366.6734-828.4686V-717.014H412.53V-828.4686c54.3077,33.8439,103.0917,70.2152,148.1456,111.4546h93.1308C576.73-797.9833,488.7779-858.4177,389.607-918.1893c-98.8191,59.5468-187.2957,120.7681-264.07,201.1753h93.0176C263.4882-758.158,312.2808-794.5735,366.6734-828.4686Z" transform="translate(1348.3184 1479.4079)"/><path class="cls-1" d="M662.0048,368.7059h-91.973c-47.626,44.8649-99.397,83.9549-157.5018,120.1707V368.7148H366.6734V488.8766c-58.0958-36.207-109.8652-75.2987-157.4841-120.153H117.2251c79.009,85.3778,169.6794,147.9883,272.3819,209.8739C492.3167,516.703,582.9781,454.0926,662.0048,368.7059Z" transform="translate(1348.3184 1479.4079)"/><path class="cls-1" d="M1203.9031-169.8c0-449.6478-364.6483-814.2961-814.2961-814.2961S-424.6891-619.4481-424.6891-169.8c0,449.6567,364.6483,814.2961,814.2961,814.2961S1203.9031,279.8475,1203.9031-169.8ZM924.3925,354.577A1054.4924,1054.4924,0,0,0,756.4984,242.4828c67.7209-123.3719,103.8165-239.012,111.55-379.7688H1138.392C1125.9636,57.2677,1056.6042,211.4463,924.3925,354.577ZM-359.18-137.286H-88.8519C-81.1095,3.4708-45.014,119.1109,22.705,242.4828A1055.1123,1055.1123,0,0,0-145.1783,354.577C-277.3991,211.4463-346.76,57.2677-359.18-137.286ZM58.99,298.5264q10.5,14.151,21.3287,27.5242c36.5179-53.8588,69.688-107.0441,122.6912-146.9722A943.5976,943.5976,0,0,0,82.9945,215.33C18.4327,100.9076-14.9779-6.17-23.3513-137.286H70.98c-26.8861-17.6677-51.2179-39.7988-73.0891-65.0268H-23.3513q.7768-12.1332,1.84-24.0119C-41.9681-253.3663-60.032-283.0665-75.8455-314A890.6034,890.6034,0,0,0-88.8519-202.3128H-359.18c12.42-194.5555,81.7718-348.7252,214.0014-491.8542,26.6,21.6891,53.77,41.757,81.8392,60.4609,36.5355,1.5273,54.1343,26.9109,83.6012,42.3443.4931-22.4581,1.2179-44.9,1.4938-67.3587A1066.5524,1066.5524,0,0,1-96.9318-739.663c301.0974-236.9421,671.5383-244.0534,973.0759,0-38.512,30.02-77.75,57.1307-119.5414,81.436,1.5874,22.4828,2.4518,45.0806,2.8143,67.6589,30.3806-15.4246,43.8289-41.5064,83.1683-43.1645,28.0684-18.7127,55.2393-38.7629,81.8072-60.4344,132.2276,143.129,201.5711,297.2987,214,491.8542H868.0482a886.3314,886.3314,0,0,0-12.9817-111.61c-15.8117,30.9163-33.886,60.6077-54.3413,87.6493q1.0607,11.8469,1.83,23.9606H781.357c-21.8889,25.228-46.2119,47.3591-73.1068,65.0268h94.3045C794.1831-6.17,760.78,100.9076,696.22,215.33a946.4013,946.4013,0,0,0-114.8128-35.0332c50.5108,40.2213,82.0493,93.6823,116.607,146.85q11.2635-13.9176,22.2-28.62c55.7572,29.207,106.4395,62.9728,155.93,101.5445-296.049,240.3257-672.5477,243.8045-973.0759,0C-47.4569,361.4992,3.2413,327.7334,58.99,298.5264Z" transform="translate(1348.3184 1479.4079)"/><path class="cls-1" d="M-482.069-169.8c0-383.9122,248.3258-709.9283,593.0791-826.1642l34.0238-138.8229-9.8052-8.2939c-432.2558,112.697-751.41,505.7763-751.41,973.281,0,361.4559,190.8345,678.3049,477.1738,855.5532C-79.34,680.3245-19.3016,662.3279,39.89,628.7265-267.3694,493.96-482.069,187.15-482.069-169.8Z" transform="translate(1348.3184 1479.4079)"/><path class="cls-1" d="M1261.283-169.8c0,357.2612-215.0885,664.3139-522.7723,798.9066,59.3827,33.584,119.61,51.4939,179.46,56.7668C1204.4369,508.66,1395.3758,191.7493,1395.3758-169.8c0-467.5047-319.1453-860.584-751.3923-973.281l-9.8227,8.2939,34.0414,138.8229C1012.9466-879.7286,1261.283-553.7125,1261.283-169.8Z" transform="translate(1348.3184 1479.4079)"/><path class="cls-1" d="M-1105.3238-176.1533-1343.44,61.9555h659.9442A1099.2467,1099.2467,0,0,0-326.7962,664.0882,516.84,516.84,0,0,0-218.8808,685.78c-270.81-193.3818-438.9959-508.746-438.9959-852.73,0-477.6317,319.8947-880.67,757.0541-1006.6243l-45.1937-38.2277c-353.0136,113.3443-628.1388,400.6395-724.42,760.9644H-1343.44l238.1158,238.107h398.7322c-.5,12.1524-.8449,24.3407-.9669,36.5781Z" transform="translate(1348.3184 1479.4079)"/><path class="cls-1" d="M1437.0819-166.9508c0,343.8977-168.1184,659.1594-438.8068,852.5659a519.0958,519.0958,0,0,0,108.596-22.26A1099.21,1099.21,0,0,0,1462.6988,61.9555h657.6745L1882.2752-176.1533H1486.6929c-.1025-12.2374-.4666-24.4257-.9669-36.5781h396.5492l238.0981-238.107H1449.6146c-96.272-360.3249-371.3813-647.62-724.3949-760.9729l-45.1919,38.2362C1117.1765-1047.6207,1437.0819-644.5825,1437.0819-166.9508Z" transform="translate(1348.3184 1479.4079)"/><path class="cls-1" d="M-28.2707-498.8359C-2.3074-440.3774,28.2377-286.2341,161.9522-217.03c-32.9191-56.8444-59.4693-193.958-68.7653-250.8112C49.8845-469.093,9.87-478.2936-28.2707-498.8359ZM22.42-450.14a306.5288,306.5288,0,0,0,47.7126,8.1223c8.3027,44.4425,19.0925,88.6339,31.5564,132.1006C68.5881-352.1235,44.0583-401.3475,22.42-450.14Z" transform="translate(1348.3184 1479.4079)"/><path class="cls-1" d="M452.0778,159.3057V-12.1871c25.7212-13.7153,46.0386-36.2423,54.0143-64.3268,39.5478-18.4279,74.505-29.2265,103.7457-61.6188,162.7145-36,249.3191-253.1943,281.1334-398.8277a45.5808,45.5808,0,0,0-22.1293-50.6472,46.28,46.28,0,0,0-54.8257,7.025l-.2757.2686c-24.65,24.3743-59.6585,38.4519-94.5449,44.3718.6558-46.3144-.1556-94.8808-4.4545-140.85H62.0972c0,46.8747-2.7186,94.0447-1.9939,140.7815-35.1888-6.24-67.7543-20.86-95.4074-45.0116a46.1094,46.1094,0,0,0-54.368-6.5509,45.5281,45.5281,0,0,0-22.0356,50.7264C-79.8156-391.2224,6.6778-174.1593,169.3834-138.1327c29.2424,32.3852,64.1978,43.1821,103.7633,61.6188,7.958,28.111,28.3019,50.638,54.0567,64.3621V160.5307c-94.08,28.5689-147.61,90.748-199.9662,167.9787l523.6861-.0159C600.1032,250.356,547.9184,184.8024,452.0778,159.3057Zm213.07-808.9277h24.839c1.26,13.6109.6045,27.4552.6045,41.1263H665.1478Zm-41.1371,0h30.8474v41.1263H624.0107Zm-41.1351,0H613.723v41.1263H582.8756Zm-41.1369,0h30.8474v41.1263H541.7387Zm-41.1352,0h30.8474v41.1263H500.6035Zm-41.1369,0H490.314v41.1263H459.4666Zm-41.1191,0h30.8313v41.1263H418.3475Zm-41.1441,0H408.06v41.1263H377.2034Zm-41.1352,0h30.8562v41.1263H336.0682Zm-41.1281,0h30.8474v41.1263H294.94Zm-41.1369,0h30.8491v41.1263H253.8032Zm-41.1352,0h30.8474v41.1263H212.668Zm-41.1369,0h30.858v41.1263h-30.858Zm-41.1263,0h30.8385v41.1263H130.4048Zm-41.1369,0H120.117v41.1263H89.2679ZM354.3741,181.3572V-29.8814c-31.7452-10.8923-54.3166-35.9912-57.3287-65.854-42.6889-17.3054-81.2963-29.8293-113.3351-67.2294-204.8432-36.5268-268.29-377.69-268.99-380.1842a18.3474,18.3474,0,0,1,8.9337-20.74,18.9388,18.9388,0,0,1,22.6914,2.9078c40.0834,35.2329,89.4277,52.9449,142.3194,55.4125a486.0353,486.0353,0,0,1,.6028-82.3675l548.2248-.0088c5.3683,167.2981-35.3532,399.39-201.4686,466.73,2.4516,42.12-28.7244,59.0961-54.4792,71.9225V201.15c54.2386,12.6016,110.0984,38.823,140.1874,80.994h27.24C512.5476,228.8294,454.4608,200.77,397.7366,187.71V-43.9661c35.475-12.1438,54.8768-29.3113,59.0714-70.7932C622.9413-182.1,670.1183-420.6556,664.75-587.9449h25.2369a476.11,476.11,0,0,1,.6045,82.272c50.7866-2.0964,105.6794-19.1437,142.2593-55.3241a19.1135,19.1135,0,0,1,22.7339-2.8919,18.3765,18.3765,0,0,1,8.9249,20.74c-.6912,2.5384-64.1466,343.7013-269.0163,380.1842C563.49-125.5735,524.8911-113.0408,482.2-95.7354c-3.0209,29.8292-25.5992,54.9617-57.2933,65.82V181.0125c80.6335,14.9845,138.3581,62.5147,175.9385,120.3192l-422.3658.007C219.6167,240.68,281.7253,198.3179,354.3741,181.3572Z" transform="translate(1348.3184 1479.4079)"/><path class="cls-1" d="M807.5607-498.88c-38.1672,20.5261-78.164,29.7338-121.4575,30.9853-9.27,56.8549-31.0206,196.4292-68.8412,250.8129C714.932-242.8452,784.2224-413.5956,807.5607-498.88ZM709.1659-442.069a303.7642,303.7642,0,0,0,53.9612-9.7964c-20.0752,51.1472-50.5956,109.3226-88.1583,150.7176A1401.2762,1401.2762,0,0,0,709.1659-442.069Z" transform="translate(1348.3184 1479.4079)"/><path class="cls-1" d="M371.5086-1390.8953l-58.7053-88.5126c-6.8979,4.5069-13.6164,8.8388-20.2769,13.2583-27.6248,18.33-55.1519,36.8089-82.8763,54.9869-16.1854,10.6123-33.8958,13.9694-52.998,10.0234-12.738-2.6314-25.5672-4.8214-39.124-7.3524a162.61,162.61,0,0,0,21.1617,93.4258c20.77,36.7693,51.2838,62.1734,91.5729,76.6683,2.3046-10.5875,5.0552-20.6306,6.6062-30.8557,3.9561-26.0809,17.5219-44.8338,39.9033-58.815,30.7635-19.2174,60.6068-39.9082,90.8375-59.978C368.8238-1388.8523,369.9673-1389.7648,371.5086-1390.8953Z" transform="translate(1348.3184 1479.4079)"/><path class="cls-1" d="M343.0252-1362.6271l-63.6078,42.1884c2.9574,4.5769,5.7369,8.9707,8.6074,13.3042q16.5334,24.96,33.1379,49.8739a16.86,16.86,0,0,0,3.236,3.6847c28.6767,23.4821,49.8921,52.9562,67.9846,84.8838,22.6277,39.9307,39.7517,82.1908,52.807,126.1427.3258,1.0971.821,2.1438,1.4393,3.7336,31.8428-5.1964,59.22-20.1634,85.87-38.2032Z" transform="translate(1348.3184 1479.4079)"/><path class="cls-1" d="M109.8773-1409.9117l-11.146-2.2335c-17.4749,76.5682,33.5615,172.7893,127.2961,192.6585.8556-3.6017,1.7161-7.2237,2.7014-11.3712-37.4777-13.1286-67.5782-36.024-89.6342-69.0574C116.996-1333.0126,107.5134-1369.6582,109.8773-1409.9117Z" transform="translate(1348.3184 1479.4079)"/><path class="cls-1" d="M275.6724-1464.0185c-2.03-3.1179-3.8961-5.9828-6.0059-9.2228-27.9384,3.7111-48.9532,17.73-63.8052,42.0385l6.1049,9.4132Z" transform="translate(1348.3184 1479.4079)"/><path class="cls-1" d="M407.7036-1390.8953l58.7054-88.5126c6.8979,4.5069,13.6164,8.8388,20.2768,13.2583,27.6248,18.33,55.1519,36.8089,82.8763,54.9869,16.1854,10.6123,33.8959,13.9694,52.998,10.0234,12.738-2.6314,25.5672-4.8214,39.1241-7.3524a162.6112,162.6112,0,0,1-21.1617,93.4258c-20.77,36.7693-51.2839,62.1734-91.5729,76.6683-2.3047-10.5875-5.0553-20.6306-6.6063-30.8557-3.9561-26.0809-17.5218-44.8338-39.9032-58.815-30.7636-19.2174-60.6069-39.9082-90.8375-59.978C410.3884-1388.8523,409.2449-1389.7648,407.7036-1390.8953Z" transform="translate(1348.3184 1479.4079)"/><path class="cls-1" d="M436.187-1362.6271l63.6079,42.1884c-2.9575,4.5769-5.737,8.9707-8.6075,13.3042q-16.5335,24.96-33.1379,49.8739a16.86,16.86,0,0,1-3.236,3.6847c-28.6766,23.4821-49.8921,52.9562-67.9846,84.8838-22.6276,39.9307-39.7517,82.1908-52.8069,126.1427-.3259,1.0971-.8211,2.1438-1.4393,3.7336-31.8429-5.1964-59.2205-20.1634-85.87-38.2032Z" transform="translate(1348.3184 1479.4079)"/><path class="cls-1" d="M669.3349-1409.9117l11.146-2.2335c17.4749,76.5682-33.5615,172.7893-127.2961,192.6585-.8556-3.6017-1.716-7.2237-2.7013-11.3712,37.4776-13.1286,67.5781-36.024,89.6341-69.0574C662.2162-1333.0126,671.6988-1369.6582,669.3349-1409.9117Z" transform="translate(1348.3184 1479.4079)"/><path class="cls-1" d="M503.54-1464.0185l6.0059-9.2228c27.9383,3.7111,48.9531,17.73,63.8052,42.0385l-6.105,9.4132Z" transform="translate(1348.3184 1479.4079)"/><path class="cls-1" d="M-9.8594,883.9219q-7.1887,7.0313-13.75,13.75H64.3594a13.8459,13.8459,0,0,1,10.1562,4.2187,14.122,14.122,0,0,1,4.0625,10.1563,13.59,13.59,0,0,1-4.0625,10,13.8459,13.8459,0,0,1-10.1562,4.2187H-58.6094a13.6188,13.6188,0,0,1-8.125-2.9687,10.6032,10.6032,0,0,1-2.3437-2.5,13.4177,13.4177,0,0,1-2.9688-6.4063,15.2958,15.2958,0,0,1-.1562-2.1875,15.1113,15.1113,0,0,1,1.875-7.3437,19.4787,19.4787,0,0,1,1.7187-2.3438c.2075-.207.4151-.415.625-.625q3.2813-3.2812,7.3438-7.5,14.8425-15,30.625-30.7812l3.9062-3.75Q-8.2969,842.0469.6094,832.9844q2.1863-2.1857,6.0937-6.0938Q20.92,812.6744,27.6406,805.3281q11.4039-12.6562,13.5938-23.5937a38.6505,38.6505,0,0,0-3.5938-27.0313,43.1575,43.1575,0,0,0-14.8437-16.4062,44.2964,44.2964,0,0,0-20.625-7.5,40.0537,40.0537,0,0,0-21.25,3.5937,42.9891,42.9891,0,0,0-16.4063,14.2188,44.8815,44.8815,0,0,0-7.8125,20.1562,14.0333,14.0333,0,0,1-5.3125,9.5313,14.37,14.37,0,0,1-10.625,2.9687,14.2666,14.2666,0,0,1-9.5312-5.4687,13.579,13.579,0,0,1-2.8125-10.4688,71.9856,71.9856,0,0,1,12.6562-32.9687,69.0462,69.0462,0,0,1,27.5-23.5938,67.2878,67.2878,0,0,1,36.4063-6.4062,73.3587,73.3587,0,0,1,33.5937,12.1875,71.8619,71.8619,0,0,1,24.375,26.875,65.9914,65.9914,0,0,1,6.25,46.25q-3.9075,18.4393-20.4687,36.7187-7.0312,7.815-21.7188,22.6563l-6.0937,6.0937q-9.0637,9.0645-26.875,26.875Z" transform="translate(1348.3184 1479.4079)"/><path class="cls-1" d="M191.5469,722.0469a13.764,13.764,0,0,1-.1563-10.9375,13.2024,13.2024,0,0,1,7.5-7.8125,14.2416,14.2416,0,0,1,10.9375-.3125,13.7818,13.7818,0,0,1,7.8125,7.6562l72.5,165.7813,72.6563-165.7813a13.7744,13.7744,0,0,1,7.8125-7.6562,14.2422,14.2422,0,0,1,10.9375.3125,13.2159,13.2159,0,0,1,7.5,7.8125,13.7761,13.7761,0,0,1-.1563,10.9375l-85.625,195.625q-3.75,8.5956-13.125,8.5937-9.2211,0-12.9687-8.5937Z" transform="translate(1348.3184 1479.4079)"/><path class="cls-1" d="M524.5156,897.6719a34.6094,34.6094,0,1,0,0-69.2188H485.6094q-26.0962,0-44.5313-18.5937-18.5961-18.4352-18.5937-44.6875,0-26.0919,18.5937-44.5313,18.4351-18.5918,44.5313-18.5937h38.9062q26.0919,0,44.6875,18.5937,18.5919,18.4395,18.5938,44.5313a14.404,14.404,0,0,1-14.375,14.375,13.3324,13.3324,0,0,1-10-4.2188,13.8422,13.8422,0,0,1-4.2188-10.1562,34.6761,34.6761,0,0,0-34.6875-34.5313H485.6094a34.61,34.61,0,0,0,0,69.2188h38.9062q26.0919,0,44.6875,18.5937,18.5919,18.4395,18.5938,44.6875,0,26.0963-18.5938,44.5313-18.5961,18.5961-44.6875,18.5937H485.6094q-26.0962,0-44.5313-18.5937-18.5961-18.4352-18.5937-44.5313a13.8467,13.8467,0,0,1,4.2187-10.1562,13.3327,13.3327,0,0,1,10-4.2188,14.4038,14.4038,0,0,1,14.375,14.375,34.6768,34.6768,0,0,0,34.5313,34.5313Z" transform="translate(1348.3184 1479.4079)"/><path class="cls-1" d="M760.9219,883.9219q-7.1895,7.0313-13.75,13.75h87.9687a13.8468,13.8468,0,0,1,10.1563,4.2187,14.124,14.124,0,0,1,4.0625,10.1563,13.5916,13.5916,0,0,1-4.0625,10,13.8468,13.8468,0,0,1-10.1563,4.2187H712.1719a13.6174,13.6174,0,0,1-8.125-2.9687,10.6036,10.6036,0,0,1-2.3438-2.5,13.4166,13.4166,0,0,1-2.9687-6.4063,15.3335,15.3335,0,0,1,1.7187-9.5312,19.4362,19.4362,0,0,1,1.7188-2.3438l.625-.625q3.2813-3.2812,7.3437-7.5,14.8419-15,30.625-30.7812l3.9063-3.75q17.8125-17.8125,26.7187-26.875l6.0938-6.0938q14.2162-14.2162,20.9375-21.5625,11.4037-12.6562,13.5937-23.5937a38.6532,38.6532,0,0,0-3.5937-27.0313,43.161,43.161,0,0,0-14.8438-16.4062,44.3,44.3,0,0,0-20.625-7.5,40.0539,40.0539,0,0,0-21.25,3.5937,42.9888,42.9888,0,0,0-16.4062,14.2188,44.88,44.88,0,0,0-7.8125,20.1562,14.0356,14.0356,0,0,1-5.3125,9.5313,14.2488,14.2488,0,0,1-20.1563-2.5,13.58,13.58,0,0,1-2.8125-10.4688,71.9757,71.9757,0,0,1,12.6563-32.9687,69.0455,69.0455,0,0,1,27.5-23.5938,67.2866,67.2866,0,0,1,36.4062-6.4062,73.3608,73.3608,0,0,1,33.5938,12.1875,71.87,71.87,0,0,1,24.375,26.875,65.9946,65.9946,0,0,1,6.25,46.25q-3.9082,18.4393-20.4688,36.7187-7.0312,7.815-21.7187,22.6563l-6.0938,6.0937-26.875,26.875Z" transform="translate(1348.3184 1479.4079)"/><path class="cls-1" d="M-1321.6938,1118.9287a25.6012,25.6012,0,0,1-.2906-20.3437,24.5553,24.5553,0,0,1,13.95-14.5313,26.49,26.49,0,0,1,20.3438-.581,25.6325,25.6325,0,0,1,14.5312,14.24l134.8511,308.0644,49.4067-113.3437q6.9748-16.2729,24.7032-15.9844,16.8515.293,24.122,15.6934l52.8941,115.3789L-851.75,1097.7129a26.7018,26.7018,0,0,1,14.8218-14.24,26.4912,26.4912,0,0,1,20.3437.581,25.7359,25.7359,0,0,1,13.95,14.5313,25.62,25.62,0,0,1-.29,20.3437l-159.2637,363.8652q-6.9749,15.6944-24.122,15.9844h-.2906q-16.858,0-24.122-15.4033l-53.1846-115.6689-49.9878,115.0878q-6.9748,15.9873-24.4126,15.9844-17.1519,0-24.1221-15.9844Z" transform="translate(1348.3184 1479.4079)"/><path class="cls-1" d="M-532.061,1498.7783q-86.316,0-147.3477-61.0312-61.0312-61.0327-61.0317-147.3487,0-86.6015,61.0317-147.6377,61.032-61.0312,147.3477-61.0322,86.6022,0,147.6386,61.0322,61.0313,61.0313,61.0318,147.6377,0,86.3175-61.0318,147.3487T-532.061,1498.7783Zm0-363.8652q-64.2327,0-109.857,45.6289-45.3377,45.3384-45.3374,109.8564,0,64.2335,45.3374,109.8575,45.624,45.3382,109.857,45.3379,64.52,0,109.8569-45.3379,45.624-45.6242,45.6284-109.8575,0-64.519-45.6284-109.8564Q-467.5417,1134.918-532.061,1134.9131Z" transform="translate(1348.3184 1479.4079)"/><path class="cls-1" d="M-238.8179,1498.7783a24.7991,24.7991,0,0,1-18.6-7.8467,24.8,24.8,0,0,1-7.8471-18.6V1327.3086a25.753,25.753,0,0,1,7.8471-18.8906,24.7991,24.7991,0,0,1,18.6-7.8467H-98.7358q34.29,0,58.7065-24.1221,24.12-24.4131,24.1221-58.707,0-34.2891-24.1221-58.707-24.4124-24.1186-58.7065-24.1221H-238.8179a24.7991,24.7991,0,0,1-18.6-7.8467,25.7467,25.7467,0,0,1-7.8471-18.8906,25.42,25.42,0,0,1,7.8471-18.6,24.8,24.8,0,0,1,18.6-7.8477H-98.7358q56.38,0,96.1972,39.8164,39.8138,40.1059,39.8159,96.1973,0,46.5029-28.4814,83.1191-27.9,36.04-71.4941,47.9532l97.0693,105.498a25.8434,25.8434,0,0,1,7.2656,18.8906,26.4076,26.4076,0,0,1-8.7187,18.6006,25.6618,25.6618,0,0,1-18.0186,6.9746,25.5174,25.5174,0,0,1-19.4722-8.4277l-125.8413-136.5947H-212.08v118.5752a24.8,24.8,0,0,1-7.8471,18.6A25.7533,25.7533,0,0,1-238.8179,1498.7783Z" transform="translate(1348.3184 1479.4079)"/><path class="cls-1" d="M126.5,1498.7783a26.7989,26.7989,0,0,1-26.4473-26.4472V1108.1758a25.42,25.42,0,0,1,7.8472-18.6,24.8,24.8,0,0,1,18.6-7.8477,25.7538,25.7538,0,0,1,18.8906,7.8477,25.42,25.42,0,0,1,7.8472,18.6v337.418H384.2856a26.7919,26.7919,0,0,1,26.7378,26.7373,24.7965,24.7965,0,0,1-7.8476,18.6,25.7505,25.7505,0,0,1-18.89,7.8467Z" transform="translate(1348.3184 1479.4079)"/><path class="cls-1" d="M795.2324,1290.3984q0,86.3175-61.0312,147.3487t-147.6387,61.0312H495.5957a26.8,26.8,0,0,1-26.4473-26.4472,25.7589,25.7589,0,0,1,7.8477-18.8907,24.7975,24.7975,0,0,1,18.6-7.8466h90.9668q64.5176,0,109.8574-45.3379,45.624-45.6242,45.627-109.8575,0-64.519-45.627-109.8564-45.34-45.624-109.8574-45.6289H495.5957a24.7972,24.7972,0,0,1-18.6-7.8467,25.7508,25.7508,0,0,1-7.8477-18.8906,25.4244,25.4244,0,0,1,7.8477-18.6,24.7981,24.7981,0,0,1,18.6-7.8477h90.9668q86.6016,0,147.6387,61.0322Q795.2325,1203.792,795.2324,1290.3984Z" transform="translate(1348.3184 1479.4079)"/><path class="cls-1" d="M1209.375,1498.7783q-86.3145,0-147.3477-61.0312-61.0312-61.0327-61.0312-147.3487,0-86.6015,61.0312-147.6377,61.0313-61.0312,147.3477-61.0322,86.6016,0,147.6387,61.0322a25.7576,25.7576,0,0,1,7.8476,18.8907,24.802,24.802,0,0,1-7.8476,18.6,25.7521,25.7521,0,0,1-18.8907,7.8476,24.7984,24.7984,0,0,1-18.6-7.8476q-45.6327-45.3369-110.1484-45.3379-64.2335,0-109.8574,45.3379-45.3369,45.6314-45.3379,110.1474,0,64.2335,45.3379,109.8575,45.624,45.3382,109.8574,45.3379,64.5205,0,110.1484-45.3379a24.7972,24.7972,0,0,1,18.6-7.8467,25.7509,25.7509,0,0,1,18.8907,7.8467,24.8184,24.8184,0,0,1,7.8476,18.6,25.7519,25.7519,0,0,1-7.8476,18.8916Q1295.9825,1498.7784,1209.375,1498.7783Z" transform="translate(1348.3184 1479.4079)"/><path class="cls-1" d="M1582.25,1498.7783q-65.9766,0-112.4727-46.791-46.7958-46.4957-46.791-112.4727V1108.1758a25.4228,25.4228,0,0,1,7.8457-18.6,24.8054,24.8054,0,0,1,18.6016-7.8477,25.7548,25.7548,0,0,1,18.8906,7.8477,25.4225,25.4225,0,0,1,7.8457,18.6v231.3388q0,43.8869,31.0977,74.9815,31.0956,31.1029,74.9824,31.0977,43.878,0,74.98-31.0977,31.0956-31.0943,31.0976-74.9815V1108.1758a26.8016,26.8016,0,0,1,26.4473-26.4473,25.7517,25.7517,0,0,1,18.8906,7.8477,25.4244,25.4244,0,0,1,7.8477,18.6v231.3388q0,65.9766-46.791,112.4727Q1647.9268,1498.7833,1582.25,1498.7783Z" transform="translate(1348.3184 1479.4079)"/><path class="cls-1" d="M1826.0859,1134.9131a24.8043,24.8043,0,0,1-18.6015-7.8467,25.7489,25.7489,0,0,1-7.8457-18.8906,25.4225,25.4225,0,0,1,7.8457-18.6,24.8052,24.8052,0,0,1,18.6015-7.8477h140.9532q56.0859,0,95.9062,39.8164,40.1074,40.1059,40.1074,96.1973,0,56.3862-40.1074,96.1973-39.82,39.82-95.9062,39.8164H1852.8223v118.5752a24.8021,24.8021,0,0,1-7.8457,18.6,25.7541,25.7541,0,0,1-18.8907,7.8467,26.7963,26.7963,0,0,1-26.4472-26.4472V1327.3086a25.7552,25.7552,0,0,1,7.8457-18.8906,24.8043,24.8043,0,0,1,18.6015-7.8467h140.9532q34.289,0,58.416-24.1221,24.4131-24.4131,24.4121-58.707,0-34.2891-24.4121-58.707-24.126-24.1186-58.416-24.1221Z" transform="translate(1348.3184 1479.4079)"/></svg>