<svg xmlns="http://www.w3.org/2000/svg" xmlns:xlink="http://www.w3.org/1999/xlink" width="842.333" height="945.397" viewBox="0 0 842.333 945.397"><defs><style>.a,.b,.c{fill:none;}.a,.c{stroke:#ff006c;}.a,.b{stroke-width:2px;stroke-dasharray:10;}.b{stroke:#ff304f;}.c{stroke-linecap:round;stroke-linejoin:round;stroke-width:3px;}.d{fill:#ff006c;}.e{filter:url(#m);}.f{filter:url(#k);}.g{filter:url(#i);}.h{filter:url(#g);}.i{filter:url(#e);}.j{filter:url(#c);}.k{filter:url(#a);}</style><filter id="a" x="35" y="39.554" width="747.239" height="283.605" filterUnits="userSpaceOnUse"><feOffset dy="2" input="SourceAlpha"/><feGaussianBlur stdDeviation="1" result="b"/><feFlood flood-color="#ff304f" flood-opacity="0.439"/><feComposite operator="in" in2="b"/><feComposite in="SourceGraphic"/></filter><filter id="c" x="755.167" y="361.527" width="46.333" height="46.333" filterUnits="userSpaceOnUse"><feOffset dy="2" input="SourceAlpha"/><feGaussianBlur stdDeviation="3" result="d"/><feFlood flood-color="#ff304f" flood-opacity="0.486"/><feComposite operator="in" in2="d"/><feComposite in="SourceGraphic"/></filter><filter id="e" x="799" y="312.361" width="43.333" height="43.333" filterUnits="userSpaceOnUse"><feOffset dy="2" input="SourceAlpha"/><feGaussianBlur stdDeviation="2.5" result="f"/><feFlood flood-color="#ff304f" flood-opacity="0.486"/><feComposite operator="in" in2="f"/><feComposite in="SourceGraphic"/></filter><filter id="g" x="813" y="337.694" width="18" height="68.667" filterUnits="userSpaceOnUse"><feOffset dy="2" input="SourceAlpha"/><feGaussianBlur stdDeviation="2.5" result="h"/><feFlood flood-color="#ff304f" flood-opacity="0.49"/><feComposite operator="in" in2="h"/><feComposite in="SourceGraphic"/></filter><filter id="i" x="769" y="312.694" width="18" height="68.667" filterUnits="userSpaceOnUse"><feOffset dy="2" input="SourceAlpha"/><feGaussianBlur stdDeviation="2.5" result="j"/><feFlood flood-color="#ff304f" flood-opacity="0.486"/><feComposite operator="in" in2="j"/><feComposite in="SourceGraphic"/></filter><filter id="k" x="0" y="716.5" width="80.24" height="80.054" filterUnits="userSpaceOnUse"><feOffset dy="2" input="SourceAlpha"/><feGaussianBlur stdDeviation="1" result="l"/><feFlood flood-color="#ff304f" flood-opacity="0.486"/><feComposite operator="in" in2="l"/><feComposite in="SourceGraphic"/></filter><filter id="m" x="14.5" y="0" width="49.716" height="89.054" filterUnits="userSpaceOnUse"><feOffset dy="4" input="SourceAlpha"/><feGaussianBlur stdDeviation="2.5" result="n"/><feFlood flood-color="#ff304f" flood-opacity="0.541"/><feComposite operator="in" in2="n"/><feComposite in="SourceGraphic"/></filter></defs><g transform="translate(-542 -1259.371)"><path class="a" d="M1138.947,1195.732V1354.7s2.207,17.686-10.932,17.686H376.855s-20.2-1.862-20.794,22.341,0,115.427,0,115.427" transform="translate(225.204 467)"/><path class="b" d="M356,1458.925v88.057s-.09,16.073,21.352,16,335.012,0,335.012,0,22.819-4.561,22.635,11.138,0,33.641,0,33.641" transform="translate(225 597)"/><g class="k" transform="matrix(1, 0, 0, 1, 542, 1259.37)"><path class="a" d="M356,978.925v29.3s7.857,33.375,21.2,34.71,710.279,0,710.279,0,7.758,3.963,7.758,25.365v188.234" transform="translate(-317 -938.37)"/></g><g transform="translate(1252.5 1574.232)"><g class="j" transform="matrix(1, 0, 0, 1, -710.5, -314.86)"><path class="c" d="M47.833,35.167A12.667,12.667,0,1,1,35.167,22.5,12.667,12.667,0,0,1,47.833,35.167Z" transform="translate(743.17 347.53)"/></g><g class="i" transform="matrix(1, 0, 0, 1, -710.5, -314.86)"><path class="c" d="M29.833,17.167A12.667,12.667,0,1,1,17.167,4.5,12.667,12.667,0,0,1,29.833,17.167Z" transform="translate(803.5 314.86)"/></g><g class="h" transform="matrix(1, 0, 0, 1, -710.5, -314.86)"><path class="c" d="M9,13.5V64.167" transform="translate(813 331.19)"/></g><g class="g" transform="matrix(1, 0, 0, 1, -710.5, -314.86)"><path class="c" d="M9,13.5V64.167" transform="translate(769 306.19)"/></g></g><g class="f" transform="matrix(1, 0, 0, 1, 542, 1259.37)"><path class="d" d="M44.009,31.878l-11.35-8.522V56.848l11.35-8.522L54.987,40.1Zm0,0-11.35-8.522V56.848l11.35-8.522L54.987,40.1Zm0,0-11.35-8.522V56.848l11.35-8.522L54.987,40.1ZM36.381,10.592V3.075a37.022,37.022,0,0,0-19.8,8.224l5.284,5.321a29.551,29.551,0,0,1,14.513-6.029ZM16.621,21.868,11.3,16.583a37.022,37.022,0,0,0-8.224,19.8h7.517A29.551,29.551,0,0,1,16.621,21.868ZM10.592,43.823H3.075a37.022,37.022,0,0,0,8.224,19.8L16.621,58.3a29.279,29.279,0,0,1-6.029-14.476ZM16.583,68.9a37.144,37.144,0,0,0,19.8,8.224V69.612a29.551,29.551,0,0,1-14.513-6.029L16.583,68.9ZM77.315,40.1A37.269,37.269,0,0,1,44.009,77.129V69.612a29.767,29.767,0,0,0,0-59.02V3.075A37.269,37.269,0,0,1,77.315,40.1Z" transform="translate(-0.08 714.43)"/></g><g class="e" transform="matrix(1, 0, 0, 1, 542, 1259.37)"><path class="d" d="M17.92,0A9.257,9.257,0,1,1,8.663,9.257,9.257,9.257,0,0,1,17.92,0M35.172,51.227,28.23,23.457a3.471,3.471,0,0,0-3.368-2.629H23.219a12.711,12.711,0,0,1-10.6,0H10.977A3.471,3.471,0,0,0,7.61,23.457L.667,51.227A3.473,3.473,0,0,0,4.035,55.54h8.1V70.583a3.471,3.471,0,0,0,3.471,3.471h4.628a3.471,3.471,0,0,0,3.471-3.471V55.54h8.1A3.473,3.473,0,0,0,35.172,51.227Z" transform="translate(21.44 3.5)"/></g></g></svg>