{
  "accessors": [
    {
      "bufferView": 2,
      "componentType": 5126,
      "count": 546,
      "max": [
        2.4087579250335693,
        0.7923399806022644,
        1.6771010160446167
      ],
      "min": [
        -2.4058630466461182,
        -0.79405802488327026,
        -1.633044958114624
      ],
      "type": "VEC3"
    },
    {
      "bufferView": 2,
      "byteOffset": 6552,
      "componentType": 5126,
      "count": 546,
      "max": [
        0.9999997615814209,
        1,
        1
      ],
      "min": [
        -0.99999833106994629,
        -0.9999992847442627,
        -0.99999988079071045
      ],
      "type": "VEC3"
    },
    {
      "bufferView": 3,
      "componentType": 5126,
      "count": 546,
      "max": [
        0.99999970197677612,
        0.9996911883354187,
        0.99998843669891357,
        1
      ],
      "min": [
        -0.99953067302703857,
        -0.99993610382080078,
        -0.9999004602432251,
        1
      ],
      "type": "VEC4"
    },
    {
      "bufferView": 1,
      "componentType": 5126,
      "count": 546,
      "max": [
        0.96170002222061157,
        0.98030000925064087
      ],
      "min": [
        0.0076999999582767487,
        0.01269999984651804
      ],
      "type": "VEC2"
    },
    {
      "bufferView": 0,
      "componentType": 5125,
      "count": 852,
      "max": [
        545
      ],
      "min": [
        0
      ],
      "type": "SCALAR"
    },
    {
      "bufferView": 2,
      "byteOffset": 13104,
      "componentType": 5126,
      "count": 442,
      "max": [
        0.6167759895324707,
        0.12884299457073212,
        1.862758994102478
      ],
      "min": [
        -0.6167759895324707,
        -0.47462499141693115,
        1.5682339668273926
      ],
      "type": "VEC3"
    },
    {
      "bufferView": 2,
      "byteOffset": 18408,
      "componentType": 5126,
      "count": 442,
      "max": [
        0.9999995231628418,
        0.96729952096939087,
        0.96610480546951294
      ],
      "min": [
        -0.9999995231628418,
        -0.97671163082122803,
        -0.9631047248840332
      ],
      "type": "VEC3"
    },
    {
      "bufferView": 3,
      "byteOffset": 8736,
      "componentType": 5126,
      "count": 442,
      "max": [
        0.99975341558456421,
        0.9253995418548584,
        0.99787348508834839,
        1
      ],
      "min": [
        -0.99882185459136963,
        -0.92539948225021362,
        -0.99987077713012695,
        1
      ],
      "type": "VEC4"
    },
    {
      "bufferView": 1,
      "byteOffset": 4368,
      "componentType": 5126,
      "count": 442,
      "max": [
        0.98820000886917114,
        0.8871999979019165
      ],
      "min": [
        0.011800000444054604,
        0.098200000822544098
      ],
      "type": "VEC2"
    },
    {
      "bufferView": 0,
      "byteOffset": 3408,
      "componentType": 5125,
      "count": 642,
      "max": [
        441
      ],
      "min": [
        0
      ],
      "type": "SCALAR"
    }
  ],
  "asset": {
    "extras": {
      "author": "imagineburner (https://sketchfab.com/imagineburner)",
      "license": "CC-BY-4.0 (http://creativecommons.org/licenses/by/4.0/)",
      "source": "https://sketchfab.com/models/19842492eaac4381b4a67f84371e945f",
      "title": "Suitcase"
    },
    "generator": "Sketchfab-3.19.6",
    "version": "2.0"
  },
  "bufferViews": [
    {
      "buffer": 0,
      "byteLength": 5976,
      "byteOffset": 0,
      "name": "floatBufferViews",
      "target": 34963
    },
    {
      "buffer": 0,
      "byteLength": 7904,
      "byteOffset": 5976,
      "byteStride": 8,
      "name": "floatBufferViews",
      "target": 34962
    },
    {
      "buffer": 0,
      "byteLength": 23712,
      "byteOffset": 13880,
      "byteStride": 12,
      "name": "floatBufferViews",
      "target": 34962
    },
    {
      "buffer": 0,
      "byteLength": 15808,
      "byteOffset": 37592,
      "byteStride": 16,
      "name": "floatBufferViews",
      "target": 34962
    }
  ],
  "buffers": [
    {
      "byteLength": 53400,
      "uri": "scene.bin"
    }
  ],
  "images": [
    {
      "uri": "textures/None.001_normal.png"
    },
    {
      "uri": "textures/None.001_baseColor.jpeg"
    },
    {
      "uri": "textures/None_metallicRoughness.png"
    },
    {
      "uri": "textures/None_normal.jpeg"
    },
    {
      "uri": "textures/None_baseColor.jpeg"
    }
  ],
  "materials": [
    {
      "doubleSided": true,
      "emissiveFactor": [
        0,
        0,
        0
      ],
      "name": "None",
      "normalTexture": {
        "index": 3,
        "scale": 1,
        "texCoord": 0
      },
      "occlusionTexture": {
        "index": 2,
        "strength": 1,
        "texCoord": 0
      },
      "pbrMetallicRoughness": {
        "baseColorFactor": [
          1,
          1,
          1,
          1
        ],
        "baseColorTexture": {
          "index": 4,
          "texCoord": 0
        },
        "metallicFactor": 0,
        "roughnessFactor": 0.7177972561
      }
    },
    {
      "doubleSided": true,
      "emissiveFactor": [
        0,
        0,
        0
      ],
      "name": "None.001",
      "normalTexture": {
        "index": 0,
        "scale": 1,
        "texCoord": 0
      },
      "pbrMetallicRoughness": {
        "baseColorFactor": [
          1,
          1,
          1,
          1
        ],
        "baseColorTexture": {
          "index": 1,
          "texCoord": 0
        },
        "metallicFactor": 0,
        "roughnessFactor": 1
      }
    }
  ],
  "meshes": [
    {
      "primitives": [
        {
          "attributes": {
            "NORMAL": 1,
            "POSITION": 0,
            "TANGENT": 2,
            "TEXCOORD_0": 3
          },
          "indices": 4,
          "material": 0,
          "mode": 4
        }
      ]
    },
    {
      "primitives": [
        {
          "attributes": {
            "NORMAL": 6,
            "POSITION": 5,
            "TANGENT": 7,
            "TEXCOORD_0": 8
          },
          "indices": 9,
          "material": 1,
          "mode": 4
        }
      ]
    }
  ],
  "nodes": [
    {
      "children": [
        1
      ],
      "name": "RootNode (gltf orientation matrix)",
      "rotation": [
        -0.70710678118654746,
        -0,
        -0,
        0.70710678118654757
      ]
    },
    {
      "children": [
        2
      ],
      "name": "RootNode (model correction matrix)"
    },
    {
      "children": [
        3,
        4
      ],
      "name": "scene.obj.cleaner.materialmerger.gles"
    },
    {
      "mesh": 0,
      "name": ""
    },
    {
      "mesh": 1,
      "name": ""
    }
  ],
  "samplers": [
    {
      "magFilter": 9729,
      "minFilter": 9987,
      "wrapS": 10497,
      "wrapT": 10497
    }
  ],
  "scene": 0,
  "scenes": [
    {
      "name": "OSG_Scene",
      "nodes": [
        0
      ]
    }
  ],
  "textures": [
    {
      "sampler": 0,
      "source": 0
    },
    {
      "sampler": 0,
      "source": 1
    },
    {
      "sampler": 0,
      "source": 2
    },
    {
      "sampler": 0,
      "source": 3
    },
    {
      "sampler": 0,
      "source": 4
    }
  ]
}

